<?xml version="1.0" encoding="UTF-8"?>
<!DOCTYPE svg PUBLIC "-//W3C//DTD SVG 1.1//EN" "http://www.w3.org/Graphics/SVG/1.1/DTD/svg11.dtd">
<!-- Creator: CorelDRAW -->
<svg xmlns="http://www.w3.org/2000/svg" xml:space="preserve" width="338.992mm" height="26.4582mm" version="1.1" style="shape-rendering:geometricPrecision; text-rendering:geometricPrecision; image-rendering:optimizeQuality; fill-rule:evenodd; clip-rule:evenodd"
viewBox="0 0 33899.2 2645.82"
 xmlns:xlink="http://www.w3.org/1999/xlink"
 xmlns:xodm="http://www.corel.com/coreldraw/odm/2003">
 <defs>
  <style type="text/css">
   <![CDATA[
    .fil0 {fill:#0049AD}
    .fil1 {fill:#FD2F31}
    .fil2 {fill:white}
   ]]>
  </style>
 </defs>
 <g id="Layer_x0020_1">
  <metadata id="CorelCorpID_0Corel-Layer"/>
  <g id="_2086770869392">
   <path class="fil0" d="M682.15 1545.72c67.03,-22.01 338.68,-8.1 429.26,-8.79 151.5,-1.15 247.2,26.7 245.34,187.2 -1.93,166.56 -103.2,177.42 -258.69,176.25 -91.4,-0.68 -347.95,15.73 -419.02,-10.91l3.11 -343.75zm-1.11 -461.78c-6.83,-77.17 -0.66,-156.03 -2.34,-233.67 -3.34,-154.2 -65.42,-117.16 379.67,-117.92 372.93,-0.65 290.48,362.87 66.13,362.48l-443.46 -10.89zm973.85 202.1c178.1,-92.18 287.42,-126.12 335.28,-362.73 45.53,-225.15 -45.74,-421.85 -160.02,-513.78 -274.98,-221.22 -816.32,-148.49 -1221.52,-148.49 -119.05,0 -238.09,-0.01 -357.14,0 -254.38,0.05 -260.47,-28.02 -261.71,72.15l4.34 2058.6c127.51,30 717.43,7.23 892.29,7.23 252.52,0 615.99,32.57 828.29,-58.07 198.23,-84.65 353.26,-273.43 335.94,-564.36 -24.43,-410.41 -345.57,-430.83 -395.75,-490.55z"/>
   <path class="fil0" d="M11146.58 1372.73l885.68 1026.41 602.73 -3.06 -9.74 -2132.27c-88.67,-7.91 -567.06,-19 -610.03,8.77 -45.6,67.31 3.84,861.21 -13.36,1025.26 -86.09,-49.99 -843.42,-995.81 -883.67,-1022.57 -39.32,-26.14 -554.45,-29.84 -598.58,-3.77 -23.44,33.89 -30.84,1937.35 -11,2126.85l629.5 -2.88 8.47 -1022.74z"/>
   <path class="fil0" d="M4244.45 1377.7c64.51,35.81 515.26,575.4 592.27,668.49 29.02,35.1 289.97,336.31 295.41,339.31 51.67,28.56 520.14,17.85 609.64,10.71l-8.51 -2132.95c-83.93,-9.13 -570.78,-16.18 -609.93,9.05 -47.19,66.05 6.3,859.8 -16.8,1025.7 -41.62,-23.37 -511.12,-587.72 -588.86,-678.43 -40.68,-47.46 -265.75,-327.45 -290.82,-344.08 -46.65,-30.95 -558.75,-26.84 -598.25,-3.85 -23.6,34.74 -30.37,1936.27 -10.15,2126.66l628.95 -2.87 -2.95 -1017.74z"/>
   <path class="fil0" d="M14586.63 1648.07c15.99,235.04 -342.3,316.43 -582.47,251.29 -254.93,-69.14 -304.61,-290.73 -304.69,-585.48 -0.09,-298.8 70.68,-501.38 332.2,-558.56 126.59,-27.68 275.74,-19.18 384.02,32.16 135.98,64.49 136.62,102.98 183.49,250.86l645.03 -9.09c45.45,-512.71 -522.26,-788.38 -1024.16,-800.57 -602.61,-14.64 -1002.55,202.66 -1160.97,665.63 -82.47,241 -79.36,584.75 -19.07,832.31 133.85,549.56 575.92,739.57 1112.58,707.7 452.2,-26.85 578.58,-214.77 678.43,-233.51l63.88 198.49 352.93 -6.54 -2.14 -1185.01 -1139.66 8.07 9.73 411.47c68.09,52.09 359.52,-1.75 470.87,20.78z"/>
   <path class="fil0" d="M17393.13 780.88c213.05,-23.23 554.59,-2.94 781.64,-2.94 461.98,0 377.54,86.18 377.24,-376.76 -0.66,-143.07 30.44,-140.31 -112.69,-140.21 -539.15,0.65 -1210.91,-12.87 -1732.25,2.26 -12.13,652.04 2.97,1323.11 -3.2,1976.57l4.07 159.12 1864.69 -2.72 -6.54 -510.77 -1174.32 -3.07 2.41 -320.51 989.56 -8.02 -0.32 -482.16 -989.7 -3.92 -0.59 -286.87z"/>
   <path class="fil0" d="M23876.95 2397.33c-22.48,-63.34 -474.78,-754.47 -551.22,-876.96 -75.57,-121.11 -55.13,-116.92 33.93,-207.03l498.92 -552.84 -630.9 -1.82c-113.97,-0.02 -126.98,55.58 -182.42,121.7 -48.27,57.57 -93.94,110.19 -138.26,166.07 -47.26,59.58 -237.63,300.7 -284.25,322.88l-0.83 -1224.26 -617.6 1.56c2.04,740.91 -9.62,1518.31 2.46,2251.82l615.67 -1.28 0.86 -104.46c0.73,-220.58 -26.45,-224.91 81.74,-324.36 36.68,-33.72 88.02,-103.44 141.88,-116.49l341.06 546.91 688.96 -1.44z"/>
   <path class="fil0" d="M33889.05 2395.2l0 -9.84c-37.79,-21.44 -602.73,-912.79 -618.69,-965.66 62.8,-101.68 556.51,-583.49 588.25,-660.55l-711.96 1.14c-88.24,90.79 -457.81,577.91 -523.91,609.04l-0.83 -1224.39 -617.26 1.68 2.13 2252.35 614.04 -1.82c7.88,-88.92 -18.61,-306.18 17.48,-363.27 19.7,-31.15 168.12,-171.93 205.78,-180.27 80.54,99.14 283.94,509.99 357.14,545.76l687.83 -4.17z"/>
   <path class="fil0" d="M20489.07 1391.49c-6.92,-170.03 136.64,-269.25 305.03,-272.14 162.59,-2.8 319.24,120.15 282.74,273.36l-587.77 -1.22zm-5.2 296.12c384.38,-15.27 841.44,10.4 1221.76,-5.63 34.22,-276.31 -57.13,-537.41 -185.02,-698.01 -115.93,-145.6 -353.82,-234.08 -615.98,-256.38 -553.92,-47.12 -980.63,194.68 -1034.44,694.36 -63.52,589.89 208.82,941.39 740.1,1001.77 250.52,28.48 548.08,12.35 755.88,-87.56 164.68,-79.17 363.03,-260.65 337.75,-533.1l-590.46 1.71c-50.69,199.43 -142.36,259.71 -381.75,230.16 -150.17,-18.53 -289.51,-169.81 -247.84,-347.32z"/>
   <path class="fil0" d="M8114.2 263.27c-151.32,-16.66 -1402.67,-2.23 -1672.24,-2.23 -518.44,0 -397.15,-89.18 -406.42,418.3 -2.01,109.88 -28.49,132.01 73.65,133.46 203.5,2.87 422.73,-9.63 628.58,-0.43l2.63 1585.86 685.53 -1.22 5.12 -1572.66c95.8,-55.01 531.63,6.21 691.51,-17.92l-8.36 -543.16z"/>
   <path class="fil0" d="M29517.87 2392.44c84.51,-479.24 -170.87,-1193 244.31,-1211.62 390.66,-17.52 150.03,710.58 227.49,1218.05l611.33 -10.35c23.74,-107.09 4.12,-616.99 4.12,-770.41 0,-231.83 23.09,-502.17 -99.21,-677.46 -185.66,-266.1 -583.9,-273.42 -847.95,-114.86 -91.55,54.98 -152,138.96 -209.55,169.89l-42.53 -237.09 -503.44 4.72 3.81 1635.42 611.62 -6.29z"/>
   <path class="fil0" d="M27608.99 1151.39c257.65,-45.76 366.94,96.69 378.01,333.82 11.14,238.76 6.08,474.34 -216.89,521.18 -268.93,56.49 -387.34,-91.84 -392.78,-335.05 -5.81,-260.18 -12.77,-476.54 231.66,-519.95zm-841.94 572.54c74.9,516.53 459.07,766.46 1055.74,705.57 536.83,-54.78 840.99,-398.78 773.65,-996.29 -59.01,-523.66 -490.98,-752.2 -1058.36,-703.23 -522.19,45.07 -855.45,411.75 -771.03,993.95z"/>
   <path class="fil1" d="M7966.59 1353.56c61.28,60.93 786.69,213.35 943.35,283.63 17.52,153.83 14.33,336.8 22.12,494.04l37.26 481.59 542.59 -815.65 946.2 256.48 -607.88 -780.73 533.03 -818.46 -925.58 339.39 -619.04 -760.84 39.64 979.62 -911.69 340.93z"/>
   <path class="fil0" d="M23976.78 768.57c-19.19,80.43 -4.82,227.78 -6.66,321.96 -3.33,171.28 97.99,50.62 228.21,99.4 113.65,479.96 -283.19,1175.05 463.02,1242.05 132.98,11.94 414.25,19.81 506.35,-62.81l-7.26 -340.64c-147.13,-84.59 -335.69,124.48 -340.07,-251.19 -1.56,-133.56 -16.2,-476.9 2.86,-594.11l344.91 -9.15 -2.81 -413.1 -344.39 -10.41 -11.55 -489.84 -449.54 6.47 -140.09 490.51 -242.98 10.86z"/>
   <path class="fil0" d="M3114.21 263.27c-98.03,-10.79 -245.78,-2.23 -349.49,-2.23 -72.39,0 -305.68,-26.94 -325.98,24.62l-0.98 2112.95 684.92 -2.72 -8.47 -2132.62z"/>
   <polygon class="fil0" points="18924.15,2396.37 19541.11,2397.93 19544.19,157.72 18927.29,149.32 "/>
   <path class="fil0" d="M26072.71 2397.01c35.5,-241.7 -23.55,-581.93 11.37,-832.62 53,-380.54 410.95,-253.46 553.63,-295.56l-1.97 -508.46c-103.98,-58 -276.75,-50.38 -389.69,0.1 -174.56,78.01 -192.34,188.99 -245.65,219.94l-39.8 -221.46 -504.64 8.5 2.06 1630.51 614.69 -0.95z"/>
   <polygon class="fil0" points="30997.97,2398.47 31613.97,2394 31610,758.65 30994.55,764.68 "/>
   <path class="fil2" d="M27608.99 1151.39c-244.43,43.41 -237.47,259.77 -231.66,519.95 5.44,243.21 123.85,391.54 392.78,335.05 222.97,-46.84 228.03,-282.42 216.89,-521.18 -11.07,-237.13 -120.36,-379.58 -378.01,-333.82z"/>
   <path class="fil0" d="M31601.6 562.34c34.58,-67.05 15.97,-315.93 10.6,-411.18l-615.41 -0.98c-8.46,80.71 -1.82,172.27 -2.3,251.05 -0.82,133.9 -38.35,170.79 88.79,169.24 107.18,-1.31 447.87,16.84 518.32,-8.13z"/>
   <path class="fil2" d="M679.04 1889.47c71.07,26.64 327.62,10.23 419.02,10.91 155.49,1.17 256.76,-9.69 258.69,-176.25 1.86,-160.5 -93.84,-188.35 -245.34,-187.2 -90.58,0.69 -362.23,-13.22 -429.26,8.79l-3.11 343.75z"/>
   <path class="fil2" d="M681.04 1083.94l443.46 10.89c224.35,0.39 306.8,-363.13 -66.13,-362.48 -445.09,0.76 -383.01,-36.28 -379.67,117.92 1.68,77.64 -4.49,156.5 2.34,233.67z"/>
   <path class="fil2" d="M20489.07 1391.49l587.77 1.22c36.5,-153.21 -120.15,-276.16 -282.74,-273.36 -168.39,2.89 -311.95,102.11 -305.03,272.14z"/>
  </g>
 </g>
</svg>
