<?xml version="1.0" encoding="UTF-8"?>
<!DOCTYPE svg PUBLIC "-//W3C//DTD SVG 1.1//EN" "http://www.w3.org/Graphics/SVG/1.1/DTD/svg11.dtd">
<!-- Creator: CorelDRAW 2019 (64-Bit) -->
<svg xmlns="http://www.w3.org/2000/svg" xml:space="preserve" width="16.9332mm" height="16.9332mm" version="1.1" style="shape-rendering:geometricPrecision; text-rendering:geometricPrecision; image-rendering:optimizeQuality; fill-rule:evenodd; clip-rule:evenodd"
viewBox="0 0 1693.32 1693.32"
 xmlns:xlink="http://www.w3.org/1999/xlink"
 xmlns:xodm="http://www.corel.com/coreldraw/odm/2003">
 <defs>
  <style type="text/css">
   <![CDATA[
    .str0 {stroke:#5FBA41;stroke-width:7.62;stroke-miterlimit:22.9256}
    .str2 {stroke:#BD63F8;stroke-width:7.62;stroke-miterlimit:22.9256}
    .str1 {stroke:#FD0101;stroke-width:7.62;stroke-miterlimit:22.9256}
    .fil22 {fill:#052E31}
    .fil44 {fill:#062D4E}
    .fil35 {fill:#08336D}
    .fil45 {fill:#0A1A58}
    .fil29 {fill:#0F9073}
    .fil27 {fill:#156164}
    .fil34 {fill:#1CA496}
    .fil38 {fill:#1D569D}
    .fil36 {fill:#21CDAF}
    .fil19 {fill:#2D52CF}
    .fil0 {fill:#4391DB}
    .fil16 {fill:#4A93D7}
    .fil52 {fill:#4EA7AA}
    .fil46 {fill:#53D8D1}
    .fil28 {fill:#5596D5}
    .fil26 {fill:#5993CA}
    .fil31 {fill:#5D5FE4}
    .fil2 {fill:#5FBA41}
    .fil12 {fill:#61B845}
    .fil18 {fill:#676F78}
    .fil11 {fill:#69B74B}
    .fil33 {fill:#6BB353}
    .fil55 {fill:#6C91B6}
    .fil13 {fill:#6D7176}
    .fil10 {fill:#6D737A}
    .fil21 {fill:#6E70F3}
    .fil30 {fill:#73B85C}
    .fil57 {fill:#748EF6}
    .fil39 {fill:#74A7D2}
    .fil4 {fill:#757374}
    .fil25 {fill:#78797C}
    .fil17 {fill:#797C82}
    .fil37 {fill:#7BBB65}
    .fil23 {fill:#7D8286}
    .fil24 {fill:#848587}
    .fil51 {fill:#8DB1D4}
    .fil20 {fill:#8DB2F4}
    .fil32 {fill:#97C8F5}
    .fil54 {fill:#98CC89}
    .fil66 {fill:#A5A7AA}
    .fil56 {fill:#AED2F6}
    .fil48 {fill:#AFC7DA}
    .fil41 {fill:#B36CE4}
    .fil63 {fill:#B3D4AA}
    .fil53 {fill:#B5B7B9}
    .fil15 {fill:#B776E6}
    .fil9 {fill:#B969EB}
    .fil6 {fill:#BB64F3}
    .fil62 {fill:#BBBDC2}
    .fil3 {fill:#BD63F8}
    .fil5 {fill:#BD64F5}
    .fil40 {fill:#BEC2C6}
    .fil61 {fill:#C5C7CA}
    .fil47 {fill:#CA2D2E}
    .fil42 {fill:#CA93EE}
    .fil59 {fill:#CDD2D4}
    .fil64 {fill:#CEEFC9}
    .fil50 {fill:#D1A8D8}
    .fil43 {fill:#D5AFEE}
    .fil60 {fill:#D7D8DA}
    .fil49 {fill:#D8ADF5}
    .fil58 {fill:#DADDE3}
    .fil65 {fill:#E6E8EA}
    .fil8 {fill:#EC1C21}
    .fil14 {fill:#F50303}
    .fil7 {fill:#FA0201}
    .fil1 {fill:#FD0101}
   ]]>
  </style>
 </defs>
 <g id="Layer_x0020_1">
  <metadata id="CorelCorpID_0Corel-Layer"/>
  <g id="_2603778464512">
   <path class="fil0" d="M385.56 738.76l0 0zm3.41 -10.3c0.33,-0.33 0.99,0.53 0.99,1 0,0.19 0.42,0.42 0.41,0.41 -0.09,-0.09 -5.98,3.2 -1.4,-1.41zm3.42 -6.86c0.33,-0.34 0.98,0.52 0.98,0.99 0,0.19 0.42,0.42 0.41,0.41 -0.08,-0.08 -5.98,3.21 -1.39,-1.4zm3.41 -6.87c0,-8.14 4.2,-0.33 2.02,0 -0.04,0 -2.02,8.72 -2.02,0zm-71.71 -99.58l-6.18 3.59 6.18 -3.59zm27.32 -24.03l0 0zm23.9 -44.64c8.64,6.19 7.8,7.02 10.25,17.17 -8.64,-6.19 -7.8,-7.02 -10.25,-17.17zm-27.32 13.72c-24.88,-6.81 -20.2,6.57 -34.14,0 -2.43,4.89 1.32,0.49 -6.83,3.04l13.45 7.17c-3.21,8.22 -7.29,2 -6.82,9.61 0.56,8.78 2.05,-3.84 6.51,10.72 -12.01,0.59 -8.36,-1.19 -16.85,3.51 1.09,30.84 5.41,11.09 9.72,27.1l-8.07 12.32c-0.47,0.53 -1.21,1.22 -1.7,1.73 -21.51,22.32 -13.75,13.8 -15.9,28.2 -0.76,5.06 -12.46,32.88 15.15,45.53 19.17,8.78 19.24,2.06 34.95,-0.82 16.87,55.96 -13.27,47.94 -27.03,99.13 14.31,-1.3 34.44,-17.8 43.03,-28.85 6.22,-8 26.23,-35.95 32.1,-39.83 -10.4,43.16 -72.83,83.91 -120.31,95.35 -26.69,6.44 -46.21,1.53 -71.21,5.7 -0.09,-0.5 0.31,-1.85 0.33,-1.48 0.01,0.36 0.27,-1.29 0.28,-1.49 0.48,-10.19 4.14,4.32 -0.51,-6.24 -1.22,-2.76 -7.5,-8.8 -10.34,-12.57 7.02,-17.44 21.35,-13.37 17.95,-37.47 17.99,-3.24 15.59,-2.9 20.82,-16.85 5.06,-13.49 10.39,-14.69 11.86,-24.06 -11.75,-9.34 -26.02,-13.59 -40.39,-14.33 -11.93,-28.29 -6.36,-7.97 -30.88,-23.89 -9.05,-5.88 -18.02,-11.45 -34.02,-9.15 -12.73,1.84 -5.94,3.12 -6.53,5.28 -2.44,8.06 3.48,6.81 -3.42,6.87 -4.35,41.42 -5.04,34.18 11.52,50.22 25.1,24.31 22.52,10.06 35.78,46.44 8.13,22.3 5.35,16.33 21.89,32.93 -62.01,5.32 -196.49,-105.95 -138.53,-254.28 8.63,-22.1 39.03,-71.58 62.53,-77.9l3.41 -3.43 6.83 -3.44 10.25 -6.86 13.66 -6.87c22.53,-20.15 93.29,-20.09 124.19,-11.58 23.45,6.46 84.56,35.96 90.93,59.65l3.42 3.43c9.86,6.51 7.52,3.64 10.24,13.74l-10.24 -4.74 -10.88 -2.92c1.5,19.14 4.88,11.95 -6.2,21.38zm61.47 130.48l-3.41 0 -5.17 17.11c-4.98,-20.02 -5.08,-22.75 -5.08,-44.58 -8.56,-5.23 -6.81,8.37 -6.81,-10.29l3.4 -6.87c-4.26,-2.59 -3.42,3.81 -3.42,-4.17 -13.34,-3.83 -6.45,-0.34 -13.22,-9.56 4.26,-9.37 3.71,-3.14 -0.44,-7.46 -18.7,22.09 -26.79,-13.01 -27.02,-13.44l-24.2 3.73 9.92 -23.67c12.71,0.2 5.94,-2.61 15.16,5.92l2.24 -6.28c16.37,4.45 11.39,10.58 21.66,23.44l2.24 -6.28 -4.29 -3.09 7.71 -3.77c-1.65,-18.22 -5.09,-5.32 0,-20.59l6.84 -0.02c4.58,-13.85 3.91,-0.86 -0.01,-17.16 10.09,7.32 16.8,31.6 17.07,44.63 6.57,10.47 0.74,6.19 5.95,16.88l0.89 -384.28c-63.75,0 -127.49,0 -191.23,0 -69.37,0 -111.22,-12.73 -158.07,36.78 -38.78,40.99 -26.33,113.27 -26.33,169.24l0 391.44c0,54.16 -12.19,130.79 24.63,170.96 46.91,51.18 88.8,38.49 156.35,38.49 64.88,0 129.76,0 194.64,0l0 -357.11z"/>
   <path class="fil1" d="M505.05 556.8l18.46 -0.31c-0.1,0.06 -0.21,0.4 -0.25,0.61l-3.6 -8.65c16.93,0.78 9.57,3.53 21.4,-0.33l21.78 -30.23c-17.3,-1.77 -20.46,4.55 -18.65,-18.03 21.55,0.55 6.1,4.8 24.11,11.78 11.25,-9.56 11.2,-2.7 24.37,-6.74 9.09,-2.78 18.9,-14.96 50.18,-9.14 12.62,2.36 -1.54,6.52 26.27,-1.86 8.45,16.07 -2.81,7.49 8.92,16.41 -2.07,6.22 -7.39,8.7 -11.56,13.7 8.71,0.2 11.58,5.97 19.9,-7.71 10.48,-17.22 -5.97,-2.93 4.81,-14.1 8.17,-8.46 17.47,1.08 22.28,-1.25 -2.71,-6.12 3.54,2.13 -2.82,-2.85l-4.61 -3.44c-0.67,-0.5 -1.98,-1.34 -2.91,-2.09 14.48,-13.43 11.14,-9.28 9.34,-15.68 -4.61,-16.39 1.74,1.3 -11.95,-3.47 3.41,-9.85 10.03,-13.55 16.43,-19.45 15.36,-14.15 1.54,-3.02 6.87,-13.74 9.86,13.06 6.32,7.11 8.45,18.23l1.26 6.3c22.68,-11.02 8.87,-4.66 14.55,-18.68l49.65 7.26c-10.2,41.3 -5.75,-7.34 -9.81,63.96l-13.09 5.13 -2.56 0.52 2.55 9.79 -3.38 20.91 14.68 2.95c-0.31,21.25 0.48,0.99 -7.22,21.02 10.18,13.89 4.35,-1.3 9.05,13.73 -18.05,25.87 0.3,10.09 -3.99,27.93 -3.21,13.33 -9.57,19.24 -11.79,26.5l34.33 3.44c3.4,-6 -3.43,16.75 -0.64,26.27 7.94,27.04 -9.54,24.64 -13.95,25.49l-11.03 9.51c7.84,27.65 37.49,52.72 34.05,82.33 -6.23,4.53 -9.79,3.62 -16.19,4.3l-0.91 18.04c-26.1,-12.21 14.96,17.88 -21.53,7.79 -8.88,-2.46 -21.32,-24.16 -24.32,-31.12 3.33,-2.15 -1.21,-1.49 9.21,-5.17 9.18,-3.25 1.81,-2.29 10.22,-1.79 -0.55,-1 -1.98,-4.1 -1.9,-5.93 0.34,-7.31 -1.2,-3.9 2.17,-3.34 -3.34,0.61 -8.25,2.31 -11.8,1.07 -23.23,-8.07 6.34,1.55 -8.5,-8.09 -20.56,-13.35 1.06,8.48 -27.51,-9.85 -0.78,-0.5 -1.82,-1.52 -2.9,-1.96l-37.28 15.35c0.29,-1.21 1.08,-3.93 1.37,-3.48 0.28,0.45 0.95,-2.37 1.33,-3.48l5.44 -18.57c-14.33,4.2 -14.59,6.11 -20.61,21.96 -1.66,-0.87 1.11,-2.41 -11.92,-7.94 -4.37,12.68 -6.83,4.9 -16.59,15.24 -8.23,8.72 -9.42,9.06 -3.85,14.77 2.37,-9.35 -2.28,-2.36 -12.66,-18.29l-1.63 24.81c-2.39,10.07 -2.44,4.91 2.62,17.98 2.49,6.44 2.93,9.04 7.64,12.94l11.44 4.44c-0.84,4.88 -0.67,19.08 -1.06,21.11 -3.58,18.51 -5.13,0.69 -11.75,17.61 -6.44,16.45 10.57,-8.35 -1.1,4.61 -3.55,3.95 -7.34,3.75 -14.02,3.72 -1.99,-7.9 1.83,-14.08 -32.16,-16.74l-6.11 16.72c-14.35,-12.93 8.78,-3.26 4.01,-30.37 -1.88,-10.69 -12.25,-15.22 -7.28,-34.86 0.42,-5.33 5.4,-0.68 -3.43,-7.45 -7.76,9.84 -17.76,25.01 -30.15,27.47 -1.08,-19.25 9.32,-21.11 8.78,-39.73l-63.33 -25.73 2.76 -16.36c1.76,-11.56 -1.25,-4.61 8.34,-11.45 -4.52,-5.38 4.82,0.16 4.61,-12.59 -0.17,-9.58 2.53,-1.27 -2.79,-9.6 -15.88,10.29 -3.53,12.4 -20.96,17.1 6.06,-25.38 20.8,-12.25 39.89,-19.54l-8.54 15.25c26.18,4.42 8.98,3.29 28.84,-11.29 10.43,-7.65 4.36,1.31 16.92,-2.66 17.59,-5.55 13.69,-17.04 13.94,-17.35 7.42,-9.22 13.96,4.07 22.34,-17.81 6.9,-18 5.15,-0.88 1.42,-19.12 -3.7,-18.09 3.42,-4.86 -4.36,-19.04 -10.07,3.41 -6.41,3.59 -10.43,5.15 -9.28,3.6 0.21,3.31 -14.49,3.14 4.71,-16.99 5.18,-1.76 14.13,-21.06 -9.03,-4.29 -7.13,-3.71 -15.23,-1.7 -11.5,2.86 -21.55,22.49 -25.73,19.95 18.33,-13.07 -3.26,-29.47 -6.92,-45.03l-0.52 -2.57 -9.75 2.55c-7.72,-1.41 -14.96,-5.15 -21.83,-7.12 -13.61,-3.91 -21.81,-4.14 -26.69,8.17 -0.29,0.72 -0.79,1.69 -1.06,2.56 -2.02,6.45 -1.56,6.5 -1.88,13.21 -0.39,8.24 0.24,19.24 0.26,27.84l0 393.84 358.53 1.05c7.37,2.16 3.44,-22.86 3.42,-41.22 -0.19,-116.4 5.02,-753.81 -3.44,-758.84l-4.34 9.37c-27.26,-8.06 -290.35,-3.47 -341.51,-4.11 -9.98,12.27 -8.89,11.59 -20.07,20.78 6.52,17.04 7.75,8.75 7.66,28.63 -0.24,52.89 -3.29,229.09 1.57,255.58l32.29 2.23z"/>
   <path class="fil2" d="M1341.68 553.35l0 0zm293.66 -48.08l0 0zm0 0l-3.41 -3.43 3.41 3.43zm-150.25 -27.47l0 0zm-129.77 350.24l-3.4 0.02c12.89,7.35 7.58,5.59 22.75,6.72 -12.39,3.63 -12.96,14.95 0.72,18.24 19.13,4.6 1.83,-0.66 13.05,-3.52 14.53,-3.71 9.51,19.65 28.28,14.76 14.53,-3.78 9.67,-15.71 8.94,-28.87l-42.54 -0.15c17.68,-17 -1.52,-27.82 43.92,-27.79l13.11 3.98c1.57,-29.07 -7.35,-20.48 -0.46,-63.47 1.61,-10.08 3.81,-20.24 2.28,-27.96 -3.3,-16.61 -30.13,-65.32 -36.05,-142.51l-29.18 41.18c-2.49,-29.18 9.35,-26.09 11.85,-44.87 -17.18,11.11 -25.33,8.74 -39.45,27.51 -1.66,-29.89 16.55,-31.16 33.38,-43.88 -17.49,-2.98 -20.17,-4.08 -40.84,-4.08 14.24,-21.82 32.73,-10.7 50.92,-11.19 -12.49,-17.59 -13.38,-19.8 -30.14,-29.14 35.04,-7.46 38.14,14.63 46.63,26.3 13.7,-32.12 23.02,-19.7 45.27,-27.16 9.08,0 6.81,-2.28 6.81,6.85l0.02 -3.42c5.55,4.13 6.38,-0.25 6.83,6.87l3.41 3.42c7.32,-26.74 43.29,-16.75 57.76,-18.05l-9.95 -10.34 -19.18 -11.96c-9.71,-1.64 -2.01,0.77 -5.1,-4.29l-9.87 -3.44c10.08,-9 24.44,-9.9 37.68,-3.59 11.98,5.72 16.36,15.36 23.79,24.79 23.48,-37.89 9.43,-25.47 51.22,-41.78l30.38 5.32c-14.52,4.56 -7.58,6.35 -8.21,12.7 -0.05,0.5 0.15,1.46 0.1,1.95l-3.02 11.7c14.49,1.11 4.35,-4.41 11.46,6.08l3.44 6.87c-14.22,5.52 -35.24,2.2 -47.28,19.95 38.5,3.27 50.78,15.39 46.42,55.26l-10.15 -19.75c-10.59,-12.8 -29.81,-17.24 -46.7,-16.85 9.95,13.24 26.23,14.57 22.52,43.66 -9.4,-12.74 -27.17,-25.18 -35.44,-37.53 -2.96,22.26 2.33,47.09 2.38,72.04 0.15,66.67 -17.43,128.49 -47.51,187.98 14.47,1.54 8.15,2.14 20.14,-2.58l9.81 -0.15c2.42,-6.87 2.62,-7.05 10.68,-14.99 14.63,20.39 0.52,18.98 17.99,18.03 10.17,-0.56 9.4,-3.63 8.76,-10.13 0.07,1.02 0.48,2.29 0.72,3 0.24,0.67 0.5,2.05 0.83,2.86l3.88 7.26c21.53,31.05 19.97,24.72 31.14,24.02l0.45 -8.36c-0.03,-0.61 -0.22,-1.73 -0.27,-2.3 -0.58,-6.54 -5.26,3.94 -0.85,-5.89 1.57,-3.51 13.13,-3.71 16.57,-5.73l-2.74 -26.51c-11.67,3.83 -35.46,17.17 -42.2,2.44 2.33,-0.75 17.11,-3.8 23.25,-6.93l21.63 -10.13 0 -160.61c2.84,-12.31 0.92,-6.36 6.5,-8.79 -6.53,21.5 -7.75,307.45 -1.48,333.68 23.8,-6.12 14.13,-18.98 13.7,-44.94l1.31 -279.73c3.49,-15.52 12.95,-31.7 9.69,-53.59l-15.63 -41.48c-0.48,-2.08 -1.67,-2.14 -2.64,-3.09 0.93,0.14 2.26,-0.01 2.81,-0.22 13.56,-5.29 3.32,6.91 7.67,-6 3.29,-9.73 0.3,-7.85 -0.54,-13.78 -3.98,-28.14 -3.37,-60.59 -2.66,-89.7 0.28,-11.37 1.76,-19.83 1.4,-30.89 -0.4,-12.68 -3.91,-20.86 -2.93,-31.74 2.16,-24.12 7.15,-2.55 3.3,-17.71 -3.79,-14.99 -4.03,-9.25 -4.03,-26.1 0.74,-9.4 -8.06,-19.37 -15.19,-25.94 -1.08,-1 -12.41,-10.04 -13.45,-10.76 -13.83,-9.53 -6.53,-6.56 -15.77,-4.52 -11.32,1.9 -7.47,-1.86 -16.96,-1.15l-8.55 1.78c-15.79,4.06 -234.15,3.18 -265.64,1.35 -9.4,-0.54 -9.63,-2.09 -14.99,13.72 31.89,4.56 167.42,1.46 217.36,1.47l72.28 -0.57c-9.76,7.94 1.24,2.25 -10.43,4.62 -0.31,0.06 -247.95,-3.99 -277.04,-0.86l0.04 178.84c-0.19,59.94 2.81,21.15 7.85,49l-14.26 7.58c-1.74,45.49 -0.69,34.83 12.45,44.54 -14.56,5.18 -10.32,4.1 -13.3,21.29l17.44 10.73c-5.85,11.63 -12.35,15.48 -12.9,14.31 -0.36,-0.77 -1.85,0.7 -2.6,1.31 6.72,25.34 3.18,379.19 -0.6,383.74 -2.76,-17.2 -3.96,-41.46 4.2,-55.82 25.73,-2.04 17.46,5.81 28.68,-37.1l16.56 5.87c-0.29,-1.36 -0.92,-2.74 -1.52,-3.87 -0.57,-1.07 -0.89,-2.36 -1.63,-3.58 -0.67,-1.1 -1.05,-1.98 -1.83,-3.07 -0.71,-0.99 -1.31,-1.59 -2.07,-2.48 -0.74,-0.86 -10.52,-4.95 -16.05,-16.37l18.61 -6.05c5.64,-29.34 -6.08,-15.66 -3.48,-41.76 24.12,-1.22 8.16,-0.79 15.68,5.97z"/>
   <path class="fil3" d="M890.93 601.43c7.81,-6.25 45.97,-111.95 177.69,-110.05 125.39,1.81 168.68,118.59 170.61,120.36 6.96,-0.39 3.47,-26.33 3.44,-34.33 -0.34,-105.14 2.93,-232.4 -0.02,-331.54 -36.1,-7.18 -287.39,1.08 -353.16,-1.64 -0.7,3.15 -0.97,13.41 -1.14,14 -3.09,10.75 7.48,-3.71 -2.41,3.19 -0.31,0.22 -1.41,0.63 -1.74,0.81l-4.61 1.76c3.64,33.46 -1.17,334.39 1.48,344.73l9.86 -7.29z"/>
   <path class="fil2 str0" d="M1368.99 927.62l-6.83 -3.44 6.83 3.44zm-6.83 -3.44l-6.83 -3.43 6.83 3.43zm-6.83 -3.43l-3.41 -3.43 3.41 3.43zm-3.41 -3.43l-6.83 -3.44 6.83 3.44zm-6.83 -3.44l-3.41 -3.43 3.41 3.43zm-3.41 -3.43l-3.42 -3.44 3.42 3.44zm-3.42 -3.44l0 0zm30.73 20.61c43.57,0.92 33.3,12.91 104.65,-8.09 29.74,-8.75 71.64,-19.44 103.65,-19.38l-23.87 6.9c-9.45,1.49 -15.94,2.85 -25.16,5.6 -38.45,11.44 -126.09,44.62 -159.27,14.97zm228.79 -32.8c6.79,0 5.01,-1.66 5.01,5.33l1.82 0.26 8.55 6.6 5.08 5.73 -6.8 1.46c-5.73,0 -4.53,1.57 -4.53,-3.75l-2.3 2.08 -6.9 -5.52 -13.32 -0.38 12.02 -3.05 0 -3.43c-3.22,-3.27 -2.18,-1.19 1.37,-5.33zm-13.66 -1.54l6.83 1.6 -6.83 -1.6zm-105.86 -34.34c0.33,-0.33 0.99,0.53 0.99,1 0,0.19 0.42,0.42 0.41,0.41 -0.08,-0.09 -5.98,3.2 -1.4,-1.41zm13.66 -3.43l-6.18 3.58 6.18 -3.58zm6.83 -3.43l-6.83 3.43 6.83 -3.43zm6.83 -3.44l-6.83 3.44 6.83 -3.44zm88.78 -10.3l0 0zm-88.78 10.3c16.99,-23.96 62.07,-10.3 88.78,-10.3 -13.1,8.38 -29.91,1.35 -44.69,0.03 -27.39,-2.43 -23.26,5.2 -44.09,10.27zm146.85 -552.82c0,16.85 0.24,11.11 4.03,26.1 3.85,15.16 -1.14,-6.41 -3.3,17.71 -0.98,10.88 2.53,19.06 2.93,31.74 0.36,11.06 -1.12,19.52 -1.4,30.89 -0.71,29.11 -1.32,61.56 2.66,89.7 0.84,5.93 3.83,4.05 0.54,13.78 -4.35,12.91 5.89,0.71 -7.67,6 -0.55,0.21 -1.88,0.36 -2.81,0.22 0.97,0.95 2.16,1.01 2.64,3.09l15.63 41.48c3.26,21.89 -6.2,38.07 -9.69,53.59l-1.31 279.73c0.43,25.96 10.1,38.82 -13.7,44.94 -6.27,-26.23 -5.05,-312.18 1.48,-333.68 -5.58,2.43 -3.66,-3.52 -6.5,8.79l0 160.61 -21.63 10.13c-6.14,3.13 -20.92,6.18 -23.25,6.93 6.74,14.73 30.53,1.39 42.2,-2.44l2.74 26.51c-3.44,2.02 -15,2.22 -16.57,5.73 -4.41,9.83 0.27,-0.65 0.85,5.89 0.05,0.57 0.24,1.69 0.27,2.3l-0.45 8.36c-11.17,0.7 -9.61,7.03 -31.14,-24.02l-3.88 -7.26c-0.33,-0.81 -0.59,-2.19 -0.83,-2.86 -0.24,-0.71 -0.65,-1.98 -0.72,-3 0.64,6.5 1.41,9.57 -8.76,10.13 -17.47,0.95 -3.36,2.36 -17.99,-18.03 -8.06,7.94 -8.26,8.12 -10.68,14.99l-9.81 0.15 4.62 4.23c16.01,10.24 37.22,6.39 49.73,22.34 -27.96,3.08 -49.66,-8.64 -76.01,3.13 -10.88,4.87 -17.45,10.95 -28.26,16.22 -12.88,6.27 -22.21,6.88 -35.44,12.42 -25.69,-1.43 -16.87,-3.4 -44.2,2.35 14.95,5.74 13.55,1.73 20.28,14.83 16.03,0 19.89,2.71 34.12,3.46 13.9,0.75 30.25,-0.02 44.43,-0.02 25.34,-0.01 60.19,-2.5 78.54,10.3 -15.71,-0.34 -17.41,-3.52 -54.63,-3.44 -44.83,0.1 -129.31,6.9 -153.67,-27.46 -10.89,-2.25 -10.99,-3.69 -13.66,-13.74l-3.41 -3.43 -3.42 -0.02c-9.08,0 -6.81,2.28 -6.81,-6.85l3.4 -3.43 -4.55 -3.12 7.95 -3.75c-7.52,-6.76 8.44,-7.19 -15.68,-5.97 -2.6,26.1 9.12,12.42 3.48,41.76l-18.61 6.05c5.53,11.42 15.31,15.51 16.05,16.37 0.76,0.89 1.36,1.49 2.07,2.48 0.78,1.09 1.16,1.97 1.83,3.07 0.74,1.22 1.06,2.51 1.63,3.58 0.6,1.13 1.23,2.51 1.52,3.87l-16.56 -5.87c-11.22,42.91 -2.95,35.06 -28.68,37.1 -8.16,14.36 -6.96,38.62 -4.2,55.82 3.78,-4.55 7.32,-358.4 0.6,-383.74 0.75,-0.61 2.24,-2.08 2.6,-1.31 0.55,1.17 7.05,-2.68 12.9,-14.31l-17.44 -10.73c2.98,-17.19 -1.26,-16.11 13.3,-21.29 -13.14,-9.71 -14.19,0.95 -12.45,-44.54l14.26 -7.58c-5.04,-27.85 -8.04,10.94 -7.85,-49l-0.04 -178.84c29.09,-3.13 276.73,0.92 277.04,0.86 11.67,-2.37 0.67,3.32 10.43,-4.62l-72.28 0.57c-49.94,-0.01 -185.47,3.09 -217.36,-1.47 5.36,-15.81 5.59,-14.26 14.99,-13.72 31.49,1.83 249.85,2.71 265.64,-1.35l8.55 -1.78c9.49,-0.71 5.64,3.05 16.96,1.15 -13.64,-18.51 -47.68,-13.73 -68.29,-13.72l-245.86 0 0 806.91c55.25,0 245.29,2.97 283.37,-0.05 34.04,-2.69 66.7,-29.01 81.9,-58.42 17.22,-33.3 10.35,-95.21 10.35,-133.81l0 -429.21c0,-30.75 9.76,-113.67 -17.06,-130.48z"/>
   <path class="fil3" d="M1232.4 754.19c-23.43,32.67 -25.91,47.92 -62.78,72.53 -82.75,55.23 -180.36,41.47 -250.58,-33.82 -9.07,-9.72 -22.32,-35.73 -28.11,-40.42l-9.24 -7.41c-5.52,93.05 -0.89,200.73 -0.89,296.5l363.17 0.39 -1.11 -262.19c0.12,-14.31 5.88,-25.48 -10.46,-25.58z"/>
   <path class="fil4" d="M456.1 110.4l-1.9 102.41 78.32 0.57c2.58,-24.47 -5.46,-75.5 3.28,-94.4 11.82,-60.79 83.67,-46.35 133.18,-46.35l358.54 0c41.58,0 96.44,-8.42 120.49,12.75 14.22,12.52 13.41,13.06 19.51,30.08 7.68,5.65 4.18,82.52 4.8,97.22l77.43 0.74c3.65,-23.61 2.7,-83.3 -2.58,-106.45 9.33,-38.71 -52.13,-104.6 -139.65,-106.44l-516.86 0c-33.51,0.97 -61.57,11.05 -89.07,30.83 -22.62,16.28 -53.1,49.43 -45.49,79.04z"/>
   <path class="fil5" d="M918.25 752.52l22.73 12.23c0.77,-20.96 -1.16,-13.15 -11.7,-25.99l12.87 -10.28 0.02 0 4.53 -0.02 9.11 -9.09c4.96,-8.79 0.95,-6.75 10.25,-6.68l12.75 3.75c0.66,0.21 1.85,0.67 2.38,0.85 0.5,0.16 1.49,0.52 2.19,0.87l6.58 3.45 17.07 -3.43c10.23,2.43 -0.64,-16 4.13,-33.63 3.34,-12.34 14.46,-12.44 22.61,-16.72 -15.31,-11.27 -9.32,10.13 -33.57,-8.63 -7.51,14.79 3.87,0.03 -3.12,14.62 -15.77,-6.88 -2.38,1.7 -6.83,-10.89l-13.95 3.71c-0.06,6.94 1.18,0.98 -6.83,3.43l-13.64 -6.85 0 -10.3 -0.27 9.73 -14.6 -1.45c-0.35,-2.86 -0.89,-6.81 -0.71,-9.59l1.92 -8.99c4.48,-14.93 0.47,-10.43 13.64,-13.72 7.69,-7.25 -3.78,3.08 2.68,-8.51 2.93,-5.23 4.88,-7.44 10.98,-8.65l10.25 0c12.62,1.94 -1.46,1.33 6.61,-0.71 0.21,-0.06 0.86,-1.48 7.05,-2.73l6.82 0 -3.39 -0.02c2.43,-8.05 -3.49,-6.81 3.41,-6.86 6,-6.63 10.47,-11.12 17.06,-17.15l16.96 10.75 6.94 -7.32 10.24 3.43 6.83 0 -3.39 -3.45c2.74,-13.99 -0.44,-4.85 6.33,-9.63l7.31 2.78 0.02 3.42c8.76,-8.99 7.74,-7.61 22.72,-5.96l1.18 2.52c4.66,-3.44 8.61,-7.46 14.63,-8.34 14.35,-2.11 -5.12,1.36 12.67,3.07l11.22 -1.57c2.12,-15.72 5.32,-1.89 -3.32,-13.89 -4.75,-6.6 -0.9,3.44 -1.09,-7.57 2.34,13.93 17.08,13.28 21.27,4.55 1.16,-19.96 -0.31,-8.41 -12.08,-21.82l7.9 -5.91c-22.81,-3.63 -48.48,-25.22 -108.5,-16.42 -95.2,13.97 -163.98,113.75 -128.51,220.46 8.51,25.6 8.75,18.25 11.64,19.15z"/>
   <path class="fil1 str1" d="M829.47 1044.38l-358.53 -1.05 0 -393.84c-0.02,-8.6 -0.65,-19.6 -0.26,-27.84 0.32,-6.71 -0.14,-6.76 1.88,-13.21 0.27,-0.87 0.77,-1.84 1.06,-2.56 4.88,-12.31 13.08,-12.08 26.69,-8.17 6.87,1.97 14.11,5.71 21.83,7.12 -6.25,-10.18 1.09,-4.9 -13.08,-11.11l-30.58 -10.16c-16.36,-8.03 -6.05,1.89 -11.26,-9.91 11.35,-15.16 17.89,-10 37.83,-10l0 -6.85 -32.29 -2.23c-4.86,-26.49 -1.81,-202.69 -1.57,-255.58 0.09,-19.88 -1.14,-11.59 -7.66,-28.63 11.18,-9.19 10.09,-8.51 20.07,-20.78 51.16,0.64 314.25,-3.95 341.51,4.11l4.34 -9.37c-20.78,-6.09 -353.9,-7.14 -373.49,-1.32 -5.82,19.79 -2.11,766.88 -2.11,808.23l365.23 -0.29c11.02,-3.15 3.32,2.45 10.39,-6.56z"/>
   <path class="fil6" d="M1147.04 773.1l0 0zm0 0l0 0zm-92.2 -3.43c3.44,-3.46 10.45,4.48 3.79,1.77 -0.08,-0.03 -8.39,2.85 -3.79,-1.77zm58.48 -21.68l1.07 7.94 0.27 3.44c-5.85,11.97 0.04,9.26 -20.74,7.26l0.39 -14.6c9.86,-5.05 6.29,-3.31 19.01,-4.04zm-75.55 14.81c29.23,-2.62 46.34,-17.62 66.05,-37.18 11.08,7.84 15.57,17.25 28.32,24.69 14.15,8.25 23.1,8.56 38.21,16.81 -7.64,3.89 -19.11,-1.98 -29.56,-3.73 -1.29,16.72 3.52,41.76 -4,54.94 -8,-14.02 -2.25,-40.62 -4.29,-58.08l-19.18 -12.26 -8.34 -8.73c-12.75,8.96 -31.68,19.39 -33.07,26.97 0,15.97 3.6,39.81 -3.41,52.1 -7.62,-13.35 -2.47,-38.45 -4.29,-55.24l-23.26 7.08 -3.18 -7.37zm70.83 -64.36c6.74,9.33 6.47,6.91 1.17,16.58 -19.94,-6.36 -10.15,-12.53 -1.17,-16.58zm-70.83 64.36l-16.65 6.83c-2.67,27.62 -1.35,16.43 8.82,32.17 9.25,14.33 -8.83,55.14 76.29,33.28 26.9,-6.91 97.54,-44.72 95.46,-75.71 0.54,-2.07 2.68,-9.01 2.88,-10.78 0.14,-1.19 0.33,-2.06 0.35,-3.22 0.01,-1.05 0.03,-1.96 -0.1,-2.93 -0.8,-5.85 -6.67,-10.11 -11.97,-11.22l-8.27 0.68c18.06,-2.26 6.61,-10.12 6.57,-10.44l-1.22 -4.14c-0.2,-0.62 -0.7,-1.67 -0.91,-2.25 -0.3,-0.82 -1.93,-3.55 -2.13,-5.2l-22.69 -5.44 3.31 0c-8.39,8.74 6.24,2.71 -10.07,8.62 9.21,8.52 8.53,2.24 2.99,7.76l-5.15 4.3c-5.01,4.45 0.09,1.09 -4.5,4.21l-10.56 -7.72c-20.47,-3.09 -17.82,-13.38 -28.21,-26.59 -18.52,-1.8 -12.32,3.22 -24.84,7.57 -12.25,4.25 -21.6,-0.94 -33.68,3.93 -21.12,8.51 -6.89,37.02 -15.72,56.29z"/>
   <path class="fil3 str2" d="M1232.4 754.19c16.34,0.1 10.58,11.27 10.46,25.58l1.11 262.19 -363.17 -0.39c0,-95.77 -4.63,-203.45 0.89,-296.5l9.24 7.41c-2.05,-12.61 -6.69,-22.19 -9.47,-35.1 -3.39,-15.72 -4.34,-23.36 -4.34,-40.42 0,-29.76 5.89,-48.55 13.81,-75.53l-9.86 7.29c-2.65,-10.34 2.16,-311.27 -1.48,-344.73l4.61 -1.76c0.33,-0.18 1.43,-0.59 1.74,-0.81 9.89,-6.9 -0.68,7.56 2.41,-3.19 0.17,-0.59 0.44,-10.85 1.14,-14 65.77,2.72 317.06,-5.54 353.16,1.64 2.95,99.14 -0.32,226.4 0.02,331.54 0.03,8 3.52,33.94 -3.44,34.33 0.88,5.52 8.42,38.89 9.51,41.03l0.74 -411.89 -375.62 0 0 806.91 375.62 0 -0.03 -339.63 -17.05 46.03z"/>
   <path class="fil7" d="M505.05 556.8l0 6.85c18.91,0 29.07,3.07 48.12,3.73l16.02 -24.92c38.62,3.25 25.36,19.12 25.11,27.61l23.75 0.59 16.46 -27.45c12.81,0.38 14.63,3.48 25.26,9.1 3.09,10.74 -1.17,5.36 -0.59,21.19 25.71,1.41 19.9,-10.5 50.78,-54.49 16.05,-22.87 33.09,-45.7 64.5,-44.27 5.49,17.76 5.76,29.48 0.37,47.69l13.09 -5.13c4.06,-71.3 -0.39,-22.66 9.81,-63.96l-49.65 -7.26c-5.68,14.02 8.13,7.66 -14.55,18.68l-1.26 -6.3c-2.13,-11.12 1.41,-5.17 -8.45,-18.23 -5.33,10.72 8.49,-0.41 -6.87,13.74 -6.4,5.9 -13.02,9.6 -16.43,19.45 13.69,4.77 7.34,-12.92 11.95,3.47 1.8,6.4 5.14,2.25 -9.34,15.68 0.93,0.75 2.24,1.59 2.91,2.09l4.61 3.44c6.36,4.98 0.11,-3.27 2.82,2.85 -4.81,2.33 -14.11,-7.21 -22.28,1.25 -10.78,11.17 5.67,-3.12 -4.81,14.1 -8.32,13.68 -11.19,7.91 -19.9,7.71 4.17,-5 9.49,-7.48 11.56,-13.7 -11.73,-8.92 -0.47,-0.34 -8.92,-16.41 -27.81,8.38 -13.65,4.22 -26.27,1.86 -31.28,-5.82 -41.09,6.36 -50.18,9.14 -13.17,4.04 -13.12,-2.82 -24.37,6.74 -18.01,-6.98 -2.56,-11.23 -24.11,-11.78 -1.81,22.58 1.35,16.26 18.65,18.03l-21.78 30.23c-11.83,3.86 -4.47,1.11 -21.4,0.33l3.6 8.65c0.04,-0.21 0.15,-0.55 0.25,-0.61l-18.46 0.31z"/>
   <path class="fil8" d="M681.72 1675.51c1.62,-12.58 0.52,-24.58 1.04,-37.48 1.04,-25.6 6.96,-15.1 -7.43,-23.35 11.1,-9.91 10.03,-1.4 10.08,-16.59 -11.45,-7.99 -22.65,-2.05 -25.97,-20.66 18.39,-0.51 46.51,6.24 67.59,6.24 21.71,0 51.7,-6.78 71,-6.24 -3.32,18.61 -14.52,12.67 -25.97,20.66 0.05,15.14 -1.12,6.73 10.06,16.45 -11.3,9.6 -7.64,9.68 -7.51,27.08 0.09,11.31 -0.26,23.01 1.14,33.89 50.14,-9.85 56.79,-147.32 -45.56,-149.87 -99.03,-2.48 -103.38,139.08 -48.47,149.87z"/>
   <path class="fil9" d="M1178.65 704.13c-1.53,-17.28 -3.57,-9.79 6.24,-17.17 16.82,13.86 -1.55,15.11 -6.24,17.17zm-55.52 -34.04c10.34,-2.28 4.3,-1.8 11.42,-1.18l2.46 10.77c-16.73,0.83 -11.48,3.93 -13.88,-9.59zm85.37 3.43l0 0zm-6.83 0l-16.49 -0.17 -3.8 -13.81c2.63,-1.36 2.54,-1.35 5.36,-2.66 5.02,-2.34 -0.5,-0.85 7.52,-3.37l7.41 20.01zm-70.73 -99.55c40.23,4.52 22.83,1.27 36,-2.87 10.01,18.83 3.23,12.56 9.75,15.17 11.6,4.66 12.56,-0.38 14.72,15.15 -9.36,15.86 -0.41,12.1 -6.81,24.02l-6.83 -3.44 -3.42 0 -3.41 -3.41 3.4 6.86 0 3.44 -6.8 10.3 1.11 6.86 5.69 10.31c-7.35,10.59 -0.56,6.85 -17.06,6.85 -11.29,9.4 4.65,4.45 -13.95,7.17l-6.26 -10.59 0 -3.43c-20.89,3.06 -78.72,22.8 -88.77,36.88 16.97,1.87 22.41,-1.62 36.56,-10.29 18.19,-11.13 20.27,-3.53 37.91,1.65 22.73,6.68 13.21,-6.82 37.93,-7.91 17.19,-0.75 27,5.7 40.97,-3.17l6.83 0c-10.71,14.94 -30.4,8.19 -47.55,10.57 -12.46,1.73 -10.03,4.12 -18.68,8.71 -13.07,6.93 -4.15,0.61 -22.26,2.21 20.13,37.99 36.28,17.69 20.21,26.59l10.56 7.72c4.59,-3.12 -0.51,0.24 4.5,-4.21l5.15 -4.3c5.54,-5.52 6.22,0.76 -2.99,-7.76 16.31,-5.91 1.68,0.12 10.07,-8.62l-13.17 -2.98c0.33,-13.57 -4.32,-6.85 8.89,-13.9 6.14,15.75 5.18,3.85 0.97,16.88l22.69 5.44c0.2,1.65 1.83,4.38 2.13,5.2 0.21,0.58 0.71,1.63 0.91,2.25l1.22 4.14c0.04,0.32 11.49,8.18 -6.57,10.44l8.27 -0.68c5.3,1.11 11.17,5.37 11.97,11.22 0.13,0.97 0.11,1.88 0.1,2.93 -0.02,1.16 -0.21,2.03 -0.35,3.22 -0.2,1.77 -2.34,8.71 -2.88,10.78 10.14,-6.34 9.88,-5.05 17.58,-26.96 21.22,-60.33 9,-112.68 -27.76,-161.98 -14.85,-19.91 -34.11,-26.01 -47.89,-41.1l-7.9 5.91c11.77,13.41 13.24,1.86 12.08,21.82 -4.19,8.73 -18.93,9.38 -21.27,-4.55 0.19,11.01 -3.66,0.97 1.09,7.57 8.64,12 5.44,-1.83 3.32,13.89z"/>
   <path class="fil10" d="M418.53 1447.28l-2.45 -34.91c9.06,-0.66 18.46,-1.57 26.85,0.01 21.76,4.09 26.07,28.44 3.99,33.71 -8.34,1.99 -20.8,3.73 -28.39,1.19zm-1.66 -56.71l-0.53 -33.16c17.58,-1.33 23.3,-3.43 36.63,7.16 3.2,25.31 -14.7,27.71 -36.1,26zm-31.31 -37.18c10.49,65.08 -1.45,60.89 0,116.75 33.4,0 105.85,8.14 105.85,-41.21 0,-24.01 -10.97,-24.87 -26.73,-33.16 11.62,-9.3 19.9,-10.57 19.9,-28.64 0,-40.38 -54.72,-30.91 -99.02,-30.91l0 17.17z"/>
   <path class="fil7" d="M624.57 797.14l1.63 -24.81c10.38,15.93 15.03,8.94 12.66,18.29 -5.57,-5.71 -4.38,-6.05 3.85,-14.77 9.76,-10.34 12.22,-2.56 16.59,-15.24 13.03,5.53 10.26,7.07 11.92,7.94 6.02,-15.85 6.28,-17.76 20.61,-21.96l-5.44 18.57c-0.38,1.11 -1.05,3.93 -1.33,3.48 -0.29,-0.45 -1.08,2.27 -1.37,3.48l37.28 -15.35c1.08,0.44 2.12,1.46 2.9,1.96 28.57,18.33 6.95,-3.5 27.51,9.85 14.84,9.64 -14.73,0.02 8.5,8.09 3.55,1.24 8.46,-0.46 11.8,-1.07 -3.37,-0.56 -1.83,-3.97 -2.17,3.34 -0.08,1.83 1.35,4.93 1.9,5.93 -8.41,-0.5 -1.04,-1.46 -10.22,1.79 -10.42,3.68 -5.88,3.02 -9.21,5.17 3,6.96 15.44,28.66 24.32,31.12 36.49,10.09 -4.57,-20 21.53,-7.79l0.91 -18.04c-6.04,-19.09 -93.08,-111.65 -122.06,-115.85l-66.41 95.22c5.83,9.43 5.33,13.96 14.3,20.65z"/>
   <path class="fil10" d="M699.03 1363.69l4.97 -7.76 3.44 7.76c-0.29,13.17 6.74,31.77 12.46,43.76 -17.49,1.89 -18,3.31 -33.56,0 5.47,-11.45 12.63,-31.18 12.69,-43.76zm-60.34 106l29.48 0.3 11.33 -37.28 47.21 -0.32 9.97 37.31 32.33 -0.29c2.54,-19.11 -35.29,-104.93 -41.98,-133.19l-40.61 0.13c-4.56,8.29 -47.5,125.48 -47.73,133.34z"/>
   <path class="fil10" d="M961.47 1392.34c7.04,8.5 7.42,34.64 4.45,46.76 -3.62,14.76 -26.7,13.73 -35.35,4.95 -19.53,-19.8 2.29,-75.65 30.9,-51.71zm1.17 -49.25l3.38 26.96c-12.6,-0.32 -71.67,-18.04 -71.67,55.45 0,38.41 28.24,49.76 60.09,42.75 18.7,-4.11 2.18,-0.93 21.85,1.59 5.66,0.73 11.21,0.16 16.64,-0.15l0.45 -143.77 -30.74 0 0 17.17z"/>
   <path class="fil11" d="M1468.02 529.31l0 0zm44.39 161.37c9.2,-6.77 6.43,-2.89 10.6,-14.53 1.8,-5.01 1.28,-6.11 2.24,-9.18 5.78,-18.35 -8.87,5.37 3.07,-7.46l13.41 1.14c0.66,21.38 -3.6,9.96 -5.4,30.04 7.49,-5.58 6.98,5.08 12.23,-32.33 5.75,-40.93 8.69,-71.49 3.95,-115.02 -5.16,4.14 -25.07,49.89 -28.98,57.78 -5.29,-39.7 -1.81,-18.97 5.95,-51.21 -5.7,1.37 -10.83,2.76 -15.39,5.35 -5.23,2.98 -1.22,0.79 -5.24,3.83l-13.25 11.51c-5,5.48 -5.51,7.74 -9.63,13.35 -3.86,-34.89 10.75,-38.24 32.68,-55.82 -17.24,-8.09 -25.9,-2.21 -47.22,-2.25l-3.41 3.43 0 -6.85c-0.45,-7.12 -1.28,-2.74 -6.83,-6.87l-0.02 3.42c0,-9.13 2.27,-6.85 -6.81,-6.85 -10.82,27.05 -22.43,9.72 -26.87,33.87 17.35,-3.26 32.39,-15.62 50.7,6.5 -19.92,1.95 -25.4,-2.38 -41.49,7.68 22.8,13.27 4.99,-4.39 32.54,22.81 18.21,17.96 18.2,3.89 19.64,35.04 18.19,-3.17 23.89,-13.78 43.5,1.64 -3.65,1.73 -25.07,6.96 -33.55,9.86 15.33,7.94 33.77,1.22 36.6,26.8 -9.62,-7.69 -17.33,-10.48 -29.77,-9.49 12.96,17.16 13.1,22.35 6.75,43.81z"/>
   <path class="fil10" d="M108.67 1329.09c7.54,64.43 1.27,78.78 4.08,140.67l27.94 -0.48c5.44,-15.81 -7.06,-50.31 1.51,-72.17 11.89,-6.72 18.38,-9.05 32.55,-3.43 14.76,26.4 -0.93,58.63 5,73.96l27.84 2.78c2.35,-51.93 11.38,-99.33 -30.75,-103.21 -18.73,-1.73 -23.08,6.91 -36.9,9.71 -0.49,-16.1 2.8,-40.26 0.56,-52.06 -9.05,-3.43 -24.19,-0.05 -31.83,4.23z"/>
   <path class="fil0" d="M126.04 508.71l2.27 3.43c-4.88,4.09 5.64,6.29 -12.65,5.86 -12.84,-0.31 -4.38,1.7 -10.09,-5.86 -30.28,16.21 -80.9,102.74 -47.83,133.93l6.29 3.54c3.46,-10.97 -0.93,-0.5 7.37,-6.97 32.65,-15.44 24.38,0.1 36.69,9.99 0.57,-21.71 -9.65,-6.22 4.85,-26.41 6.9,-9.61 9.04,-19.03 13.12,-21.39 3.11,-23.56 25.91,-20.51 8.09,-39.94l-11.53 5.61c-0.59,-1.54 -2.84,-8.85 -3.26,-9.76 -5.6,-12 -6.46,-7.28 -14.39,-17.7l19.25 -17.16 5.25 -8.34 0 -5.4 0 -3.43 0 -3.44c-0.06,7.39 1.16,0.64 -3.43,3.44z"/>
   <path class="fil12" d="M1471.43 659.79c-2.95,34.2 -26.37,36.73 -8.62,73.83l32.82 60.38c13.34,-7.82 4.66,-3.4 13.66,-20.41l16.94 -32.59c6.34,-13.49 15.42,-37.84 10.1,-50.31 1.8,-20.08 6.06,-8.66 5.4,-30.04l-13.41 -1.14c-11.94,12.83 2.71,-10.89 -3.07,7.46 -0.96,3.07 -0.44,4.17 -2.24,9.18 -4.17,11.64 -1.4,7.76 -10.6,14.53 -8.12,-7.7 0.84,-17.53 -17.07,-31.54l-3.42 0c-0.01,15.2 0.84,11.18 -4.29,24.39 -7.91,-10.69 -5.94,-9.16 -5.95,-23.74 -2.87,-10.77 2.36,-3.28 -6.83,-6.87l-3.42 6.87z"/>
   <path class="fil10" d="M1448.46 1467.64l2.78 -24.59c-11.92,0.45 -67.58,17.23 -72.16,-34.83 -5.43,-61.77 46.8,-48.19 61.9,-47.68l6.34 -23.99c-30.99,-3.92 -41.31,-7.48 -69.35,8.7 -17.97,10.38 -31.44,37.78 -32.6,56.64 -1.33,21.5 10.78,44.44 28.4,56.58 17.76,12.23 51.83,18.13 74.69,9.17z"/>
   <path class="fil10" d="M292.77 1407.74l-39.75 0.54c4.38,-10.67 5.3,-19.23 20.27,-20.76 16.84,-1.72 20.33,5.69 19.48,20.22zm27.39 38.73c-21.2,-1 -62.91,12.05 -63.92,-20.53 11.93,-0.67 45.21,1.21 53.82,-0.83 11.58,-2.75 11.01,-4.58 11.19,-16.54 0.64,-43.61 -54.14,-54.92 -81.9,-27.08 -21.92,21.97 -19.24,57.04 3.43,77.7 13.23,12.06 25.24,11.09 43.82,11.17 29.32,0.12 29.14,1.86 33.56,-23.89z"/>
   <path class="fil10" d="M778.62 1370.93c-0.65,14.7 3.19,29.06 3.08,47.66 -0.09,17.02 -0.43,34.31 0.33,51.17l27.96 -0.49 -1.35 -54.41c0.34,-25.76 10.6,-25.21 33.73,-22.93 17.96,25.9 -0.28,57.85 6.66,75.71l27.85 2.78c0.9,-20.08 4.26,-71.88 -2.83,-86.32 -11.83,-24.11 -45,-18.49 -62.17,-7.42 -17.98,-5.62 14.86,9.1 -4.9,-3.9 -7.98,-5.25 -5.7,-2.89 -28.36,-1.85z"/>
   <path class="fil10" d="M1255.72 1426.09l-0.38 21.26c-11.87,3.48 -20.34,3.48 -30.94,-0.07 -6.1,-20.73 15.71,-22.44 31.32,-21.19zm-53.23 -51.28l-0.79 15.9c20.96,1.15 47.59,-10.85 54.83,14.56 -12.23,6.71 -30.12,1.71 -45.39,12.58 -30.52,21.7 -16.96,61.76 30.76,51.24 5.54,-1.22 5.42,-2.46 9.9,-3.2 16.19,-2.7 -14.47,-2.01 4.02,-0.29 7.67,0.71 -0.76,3 14.24,4.35 10.07,0.9 7.38,0.44 14.6,-2.21 0.88,-3.04 0.7,-74.45 -5.82,-85.5 -11.83,-20.09 -61.54,-17.99 -76.35,-7.43z"/>
   <path class="fil10" d="M1071.33 1426.09l0.38 19.13c-31.4,22.27 -59.88,-23.78 -0.38,-19.13zm-53.61 -55.09l-3.64 19.73c23.74,1.18 51.58,-12.05 54.71,14.46 -5.65,3.15 -77.08,8.68 -55.26,51.35 13.32,26.05 48.45,7.8 59.28,10.03 11.34,2.33 5.21,4.28 25.98,3.12 0.79,-14.16 -1.02,-31.53 -0.49,-42.71 0.67,-14.08 1.93,-29.16 -3.53,-41.64 -12.41,-28.35 -55.39,-15.58 -77.05,-14.34z"/>
   <path class="fil13" d="M1597.5 1493.89l1.4 18.37c38.22,7.01 48.33,-27.91 57.36,-55.42 6.42,-19.57 30.33,-69.71 29.93,-85.91l-27.94 0.49 -16.6 64.42 -19.4 -64.9 -31.04 -0.41c-0.24,27.28 38.33,75.19 33.47,102.3 -2.9,16.19 -16.89,15.28 -27.18,21.06z"/>
   <path class="fil10" d="M-7.14 1346.52l0.21 13.16c31.12,1.57 22.47,-2.1 36.77,-2.27l0.59 112.73 30.73 0 0.2 -112.74c27.71,0.34 40.74,15.82 40.78,-21.18l-109.28 0 0 10.3z"/>
   <path class="fil8" d="M693.47 1685.87c20.65,7.46 51.14,13.55 70.24,-0.3 2.1,-17.97 4.16,-52.32 -1.36,-68.96 -9.98,-3.35 -60.22,-5.32 -66.36,0.87 -6.49,6.52 -3.47,56.12 -2.52,68.39z"/>
   <path class="fil14" d="M491.43 752.5c14.84,-0.94 20.63,-3.57 37.46,-3.55 13.46,0.02 27.2,0.77 40.18,-0.77l58.66 -100.76c-24.22,-19.34 -66.1,-37.84 -95.32,-42.57 3.66,15.56 25.25,31.96 6.92,45.03 4.18,2.54 14.23,-17.09 25.73,-19.95 8.1,-2.01 6.2,-2.59 15.23,1.7 -8.95,19.3 -9.42,4.07 -14.13,21.06 14.7,0.17 5.21,0.46 14.49,-3.14 4.02,-1.56 0.36,-1.74 10.43,-5.15 7.78,14.18 0.66,0.95 4.36,19.04 3.73,18.24 5.48,1.12 -1.42,19.12 -8.38,21.88 -14.92,8.59 -22.34,17.81 -0.25,0.31 3.65,11.8 -13.94,17.35 -12.56,3.97 -6.49,-4.99 -16.92,2.66 -19.86,14.58 -2.66,15.71 -28.84,11.29l8.54 -15.25c-19.09,7.29 -33.83,-5.84 -39.89,19.54 17.43,-4.7 5.08,-6.81 20.96,-17.1 5.32,8.33 2.62,0.02 2.79,9.6 0.21,12.75 -9.13,7.21 -4.61,12.59 -9.59,6.84 -6.58,-0.11 -8.34,11.45z"/>
   <path class="fil14" d="M791.91 700.98c4.41,-0.85 21.89,1.55 13.95,-25.49 -2.79,-9.52 4.04,-32.27 0.64,-26.27l-34.33 -3.44c2.22,-7.26 8.58,-13.17 11.79,-26.5 4.29,-17.84 -14.06,-2.06 3.99,-27.93 -4.7,-15.03 1.13,0.16 -9.05,-13.73 7.7,-20.03 6.91,0.23 7.22,-21.02l-14.68 -2.95 3.38 -20.91c-8.37,5.18 -2.48,-1.39 -11.11,9.57l-18.94 32.31c-12.3,19.04 -21.38,25.64 -13.74,46.81 15.53,-3.15 12.08,-26.21 37.27,7.16 -3.87,12.84 -10.09,17.52 -17.95,27.77l11.02 20.09 16.68 -7.56 18.15 13.84 -4.29 18.25z"/>
   <path class="fil10" d="M1553.49 1394.59c9.28,-5.79 11.15,-2.87 24.18,-3.13l1.49 -14.69 -8.7 -0.76 -16.49 -2.59 3.41 -29.57 -27.31 -0.7c-1.57,57.73 1.28,18.72 -16.78,31.73 -0.39,2.95 -1.6,4.86 -0.78,9.61 1.02,5.94 0.54,3.99 2.7,7.14 7.05,10.32 3.13,-8.52 10.86,9.83 0,15.96 -0.7,43.13 6.21,55.56 9.47,17.02 31.28,13.12 48.42,13.12l3.76 -19.81 -25.49 -1.79c-7.71,-22.33 -5.75,-30.59 -5.48,-53.95z"/>
   <path class="fil15" d="M1126.55 646.05l-14.85 -2.09c-2.11,-15.08 -5.75,-10.56 5.48,-17.62 12.59,3.46 10.56,6.44 9.37,19.71zm-23.9 -30.9c1.48,-0.63 -2.73,-8.36 3.99,-0.02 3,3.72 1.39,2 2.25,6.3 -5,-1.05 -0.53,4.99 -6.26,-2.32 -8.44,-10.76 4.31,3.51 0.02,-3.96zm-13.66 0l1.59 -6.86 -1.59 6.86zm34.14 0l3.17 -13.59c12.85,9.37 6.93,10.81 -3.17,13.59zm-57.46 -13.14c10.35,2.08 7,-1.28 9.07,9.12 -12.26,-0.54 -8.64,4.31 -9.07,-9.12zm40.39 -0.59l-6.83 -3.44 6.83 3.44zm-13.66 -10.3l6.83 6.86c-9.61,-1.95 -4.89,2.8 -6.83,-6.86zm0 0l0 0zm-23.88 -6.87c14.95,2.61 6.85,-4.06 10.52,7.16l-7.18 4.04 -3.36 -14.62 -7.31 -2.78c-6.77,4.78 -3.59,-4.36 -6.33,9.63 7.86,3.01 12.1,7.76 5.42,29.41 -3.89,12.61 -9.69,11.11 -6.61,23.27 6,1.52 8.94,2.9 13.92,-3.95 9.54,-13.12 -4.62,7.36 -0.26,-12.13 15.94,-1.04 -1.39,4.99 12.58,5.78l9.08 -14.91c5.12,13.47 0.43,0.67 9.66,12.56 -16.83,12.3 -5.82,-8 -16.23,8.04l2.37 6.87c-0.72,4.38 -7.78,3.43 4.72,3.43 3.05,-12.97 -1.83,-12.05 16.09,-8.22l-2.94 15.09 23.89 -6.87 16.57 -3.73c-2.54,-12.8 -7.12,-11.56 -18.03,-18.83 -11.12,-7.41 -12,-11.27 -19.03,-22.07 16.61,4.59 3.33,3.88 17.07,13.73l16.13 10.13 1.3 -23c18.73,-13.28 10.68,-2.31 16.43,-17.15 -4.63,1.17 -24.52,25.52 -26.05,-11.16l-11.22 1.57 -4.31 14.9c-1.01,-0.1 -9.85,-0.54 -10.43,-0.72 -4.75,-1.48 -1,0.34 -5.8,-2.99l-4.43 -3.75c-0.58,-0.48 -1.48,-1.53 -2.33,-2.17l-1.18 -2.52c-14.98,-1.65 -13.96,-3.03 -22.72,5.96z"/>
   <path class="fil10" d="M1145.87 1380.27c-7.36,-14.22 -6.54,-10.87 -28.98,-9.12 -1.46,18.87 2.89,27.75 2.95,47.37 0.03,13.32 -3.45,40.76 -1.29,49.36l27.87 2.48c6.26,-82.89 -15.66,-72.2 37.59,-76.35l4.22 -22.7c-20.6,-7.38 -28.44,-4.95 -42.36,8.96z"/>
   <path class="fil16" d="M180.66 474.37l0 10.3c0.64,12.61 0.31,2.23 14.26,10.3 -10.78,17.84 -3.71,39.38 16.78,44.93 14.13,-18.42 4.18,-11.69 26.85,-24.59 32.48,-18.47 2.66,-8.52 20.08,-22.59 -27.68,-22.17 -6.4,-23.65 -45.56,-20.62 -8.85,0.69 -1.83,0.46 -10.36,-0.03 -13.03,-0.76 -9.19,-3.69 -22.05,2.3z"/>
   <path class="fil17" d="M227.98 1607.72c-13.29,-0.4 -24.49,-2.44 -34.2,3.2l17.22 6.4 0.29 23.73c-14.9,10 -31.48,8.12 -46.51,-0.42 -32.14,-18.26 -25.04,-63.25 9.81,-70.29 27.43,-5.54 29.51,3.22 46.28,16.58 0.94,-12.98 -1.28,-12.37 -3.41,-24.08 -13.38,7.1 -0.91,2.21 -13.53,1.02 -63.22,-5.94 -85.83,31.45 -68.91,65.48 11.3,22.71 36.17,22.81 59.35,22.87 5.62,0.01 15.45,0.44 20.61,-0.19 20.16,-2.44 5.41,0.4 13,-44.3z"/>
   <path class="fil15" d="M1013.57 642.33c9.22,4.14 9.25,1.06 4,10.89 -6.76,-3.17 -12,-1.26 -4,-10.89zm-30.44 -6.58l10.15 8.61c-4.92,7.55 -7.82,10.15 -12.62,5.97 -7.76,-6.74 -0.87,-8.33 2.47,-14.58zm-17.07 6.87l-3.42 -3.43 3.42 3.43zm-3.42 -3.43l-6.83 -1.6 6.83 1.6zm41.56 -0.59c1.77,-9.49 -2.33,-7.92 7.42,-7.46 0.54,10.1 0.36,5.71 -7.42,7.46zm-24.48 -26.86l-10.25 0c2.04,3.53 4.77,8.8 4.98,10.54 0.4,3.41 -0.58,5.12 -2.15,9.45l-16.49 -2.83c-13.17,3.29 -9.16,-1.21 -13.64,13.72 15.19,2.32 16.35,-0.13 13.66,10.3l0 10.3 10.38 -3.61 3.26 10.46c8.01,-2.45 6.77,3.51 6.83,-3.43l-10.24 -24.02 14.41 16.91c19.99,-9.01 31.22,-3.17 53.88,-3.17 19.01,2.58 0.28,16.68 28.31,4.62 -13.65,-17.3 -52.38,-24.5 -59.04,-49.26l-3.42 -3.42 -6.82 0c8.57,14.86 10.42,22.35 -13.37,19.7l-0.29 -16.26z"/>
   <path class="fil17" d="M552.88 1672.72c10.29,-15.77 31.97,-13.66 44.68,-3.73 -5.33,17.77 -33.92,20.21 -44.68,3.73zm3.41 -51.5l6.79 -16.74c24.08,-1.8 32.27,17.06 16.24,33.02 -12.01,-1.55 -16.03,-5.64 -23.03,-16.28zm-10.54 3.88c6.92,11.43 3.95,12.37 17.3,17.39l-13.35 7.44 6.26 11.24c-32.86,32.22 29.63,45.21 51.18,5.8 -11.76,-18.44 -23,-13.71 -43.87,-15.59l32.13 -17.92c4.62,-16.96 -2.62,-10.35 7.63,-23.67 3.7,-4.81 1.2,2.24 4.7,-6.11 -5.4,-2.97 -32.5,-7.43 -39.83,-5.41 -11.82,3.27 -18.99,14.96 -22.15,26.83z"/>
   <path class="fil18" d="M1468.02 1388.02c9.72,19.18 2.25,55.71 3.65,78.09l23.94 0.43 0.99 -95.98 -28 0.12 -0.58 17.34z"/>
   <path class="fil19" d="M475.45 1234.73l-1.27 4.64c13.76,9.41 15.9,-9.98 34.68,13.19 6.86,4.17 14.43,19.1 14.81,25.5 0.56,9.62 -6.51,19.26 -9.37,27.48l-1.11 -0.66c7.8,-14.72 15.39,-12.75 21.97,-13.29 0.24,-0.02 11.15,-1.84 11.6,-1.92 6.82,15.75 9.5,10.51 15.48,15.98 11.96,10.93 -0.54,-7.62 3.08,4.68 0.14,0.45 0.24,1.6 0.3,2.07 3.31,24.62 -6.81,-5.2 5.67,12.2 9.36,13.07 -8.19,45.35 -10.26,50.7l15.9 -2.35c4.78,-6.85 11.09,-20.83 14.14,-29.02 -5.54,0.17 -8.6,-11.49 -8.61,-18.03 -3.21,-21.19 -0.75,-16.87 -15.32,-31.62 -10.76,-10.89 0.08,-3.25 -10.96,-8.57 -9.8,-4.72 -4.53,0 -14.66,-9.13l-4.94 -2.34 -7.32 6.39c-0.69,-5.72 -0.88,-12.73 -2.41,-18.03 -3.14,-10.92 -14.87,-25.63 -28.13,-30.51l-23.27 2.64z"/>
   <path class="fil17" d="M358.82 1641.23l-0.53 -33.16c7.94,-0.78 32.95,-10.89 34.57,16.69 1.5,25.51 -16.57,22.84 -34.04,16.47zm-20.78 -74.07c19.55,14.57 7.46,54.95 7.12,84.37 22.29,1.74 55.7,4.61 60.46,-24.26 4.89,-29.65 -25.9,-33.32 -46.5,-23.52 -2.27,-20.76 3.48,-24.31 1.95,-43.75 -10.68,0.13 -12.49,2.87 -23.03,7.16z"/>
   <path class="fil16" d="M122.62 570.5l11.53 -5.61c17.82,19.43 -4.98,16.38 -8.09,39.94 12.85,-7.68 8.83,-8.49 21.08,-13.4 9.72,-3.9 13.35,-1.51 19.87,-10.62l-13.52 -3.18 13.54 -7.12c7.81,-9.52 -0.97,-5.12 13.64,-10.28 -3.57,-6.61 -5.87,-5.96 -11.63,-12.55 -6.23,-7.12 0.36,-12.23 -14.81,-4.93l-0.87 -10.01 -17.08 -3.43c-1.45,6.08 -3.1,13.78 -5.21,18.64 -5.45,12.56 -5.68,5.58 -8.45,22.55z"/>
   <path class="fil20" d="M502.76 1333.24l9.14 -0.39 -1.3 14.08c15.47,2.74 20.69,4.05 29,16.76l8.84 6.87c1.44,-17.67 2.11,-8.71 4.45,-13.72l6.95 -27.58 -15.43 -5.67c15.51,-0.58 5.86,-7.07 5.87,-7.28 0.8,-19.37 -9.18,18.54 4.49,-8.5 -12.57,-1.97 -24.97,7.84 -33.16,11.66l-8.42 -14.59 1.11 0.66 -11.54 27.7z"/>
   <path class="fil14" d="M634.83 828.06c2.38,14.59 5.6,17.42 -4.29,30 -15.67,-2.49 -33.8,-35.68 -53.74,-43.76 -4.97,19.64 5.4,24.17 7.28,34.86 4.77,27.11 -18.36,17.44 -4.01,30.37l6.11 -16.72c33.99,2.66 30.17,8.84 32.16,16.74 6.68,0.03 10.47,0.23 14.02,-3.72 11.67,-12.96 -5.34,11.84 1.1,-4.61 6.62,-16.92 8.17,0.9 11.75,-17.61 0.39,-2.03 0.22,-16.23 1.06,-21.11l-11.44 -4.44z"/>
   <path class="fil21" d="M513.19 1304.88l8.42 14.59c8.19,-3.82 20.59,-13.63 33.16,-11.66 -13.67,27.04 -3.69,-10.87 -4.49,8.5 -0.01,0.21 9.64,6.7 -5.87,7.28l15.43 5.67 -6.95 27.58c-2.34,5.01 -3.01,-3.95 -4.45,13.72l9.74 6.87 2.85 -2.13c2.07,-5.35 19.62,-37.63 10.26,-50.7 -12.48,-17.4 -2.36,12.42 -5.67,-12.2 -0.06,-0.47 -0.16,-1.62 -0.3,-2.07 -3.62,-12.3 8.88,6.25 -3.08,-4.68 -5.98,-5.47 -8.66,-0.23 -15.48,-15.98 -0.45,0.08 -11.36,1.9 -11.6,1.92 -6.58,0.54 -14.17,-1.43 -21.97,13.29z"/>
   <path class="fil2 str0" d="M1351.92 828.06l0 6.85c5.95,3.63 4.19,1.11 -3.4,3.43 0,9.13 -2.27,6.85 6.81,6.85l3.42 0.02 3.41 3.43 13.66 13.74c19.68,4.79 25.87,13.02 51.21,17.16 -6.73,-13.1 -5.33,-9.09 -20.28,-14.83 27.33,-5.75 18.51,-3.78 44.2,-2.35 -4.8,-6.5 -2.99,-6.03 -16.49,-10.87l-0.81 -19.44c-13.13,-1.3 -26.59,-3.37 -40.46,-4.89 11.8,-15.05 22.22,-4.82 33.85,-19.71 -45.44,-0.03 -26.24,10.79 -43.92,27.79l42.54 0.15c0.73,13.16 5.59,25.09 -8.94,28.87 -18.77,4.89 -13.75,-18.47 -28.28,-14.76 -11.22,2.86 6.08,8.12 -13.05,3.52 -13.68,-3.29 -13.11,-14.61 -0.72,-18.24 -15.17,-1.13 -9.86,0.63 -22.75,-6.72z"/>
   <path class="fil21" d="M486.91 1300.9c-6.14,-13.63 -6.3,-11.69 -18.69,-17.46 -0.71,6.79 0.25,6.6 0.3,11.45 0.15,12.37 3.69,1.1 -1.01,7.83 2.4,6.99 0.2,4.13 3.41,9.47l3.42 0.01c11.48,-4.83 4.01,-2.81 17.64,2.23l3.65 16.43 -7.63 -1.21 1.31 10.01c5.25,-6.73 -0.34,-4.72 8.39,-3.55 2.5,11.82 1.31,1.45 -2.87,6.09l13.13 7.9 0.86 27.05 3.74 -20.05 6.17 6.59c0,-5.05 -0.81,-3.98 3.41,-1.11l8.47 -3.44 -20.01 -12.21c-10.07,-8.1 -7.39,-4.59 -7.84,-13.69l11.54 -27.7c2.86,-8.22 9.93,-17.86 9.37,-27.48 -0.38,-6.4 -7.95,-21.33 -14.81,-25.5l-4.94 -1.42c6.28,16.71 11.25,14.27 7.06,34.23 -3.05,14.54 -6.66,19.88 -17.2,24.54l-6.87 -9.01z"/>
   <path class="fil22" d="M453.83 1181.71l0.04 8.31c23.93,-18.52 11.98,-6.17 29.35,9.45l13.76 14.1c5.12,2.29 20.49,13.22 24.48,17.13 0.17,0.17 8.1,9.82 9.14,11.2 11.66,15.4 -1.65,6.34 12.62,13.94l-0.15 -19.4 -3.56 -2.97c-2.73,-3.87 -5.18,-7.88 -9.23,-10.56 -10.6,-11.8 -20.8,-15.84 -31.48,-28.03 -8.2,-9.35 -21.38,-27.43 -31.29,-30.84l-10.24 1.37 -5.96 6.87 2.52 9.43z"/>
   <path class="fil23" d="M891.52 1604.64c4.57,14.7 2.78,-2.28 5.86,13.42 5.08,25.87 -6.4,29.18 -9.57,33.18l33.56 0.77c-12.87,-11.02 -9.97,-9.42 -9.83,-40.51 12.81,-4.5 11.19,-6.41 24.96,-1.76 4.9,14.77 4.42,29.34 -4.3,41.5l26.76 0.75c-16.09,-23.17 -5.16,-27.86 -12.22,-49.12 -16.01,-5.37 -21.91,0.22 -32.04,-0.65 -16.55,-1.42 3.39,-7.67 -23.18,2.42z"/>
   <path class="fil24" d="M1410.55 1604.64c0.56,1.77 9.88,14 6.25,33.75 -5.03,13.2 -0.48,0.88 -9.95,12.85l33.56 0.77c-12.87,-11.02 -9.97,-9.42 -9.83,-40.51 12.8,-4.5 11.18,-6.41 24.95,-1.76 4.9,14.77 4.42,29.34 -4.29,41.5l26.73 0.75c-14.45,-20.92 1.03,-29.43 -14.24,-50.49l-53.18 3.14z"/>
   <path class="fil9" d="M948.98 752.5l10.25 10.3c-10.51,-1.3 -8.41,-1.29 -10.25,-10.3zm0 0l0 0zm-19.7 -13.74c10.54,12.84 12.47,5.03 11.7,25.99l-22.73 -12.23c5.54,17.54 14.39,31.14 30.72,37.75 -10.42,-20.98 -6.3,-4.43 -1.74,-17.55 20.01,-1.8 9.79,0.38 13.85,5.88 6.13,8.31 -7.28,1.49 4.9,3.89 5.56,11.24 2.78,4.91 2.98,18.53l-13.15 -3.87c5.04,11.82 14.43,17.92 26.74,20 -1.33,-7.92 -5.45,-18.49 -7.59,-28.96 -3.24,-15.93 -5.27,-16 -15.73,-25.39l7.84 -2.39 -4.43 -15.38 -3.41 0 -1.34 7.1 -5.51 -9.93 -8.79 -3.31 -1.42 -10.41 -0.02 0 -0.2 13.14 -12.67 -2.86z"/>
   <path class="fil25" d="M1119.98 1604.84c9.5,12.06 4.96,-0.27 9.98,12.94 0,27.02 3.25,15.13 -9.95,33.46l30.12 0.76c-12.84,-11.02 -9.94,-9.45 -9.8,-40.5 13.12,-4.61 8.23,-4.86 22.9,-3.13 12.36,15.71 8.13,28.4 -2.24,42.87l30.14 0.76c-21.12,-18.06 -1.51,-16.31 -13.95,-50.8 -17.42,-1.36 -20.12,-3.07 -34.73,5.69l-3.88 -9.7 -18.59 7.65z"/>
   <path class="fil26" d="M378.73 580.83c3.28,5.34 2.28,3.87 5.54,7.89 0.02,0.03 4.19,4.51 5.29,5.83 -5.39,2.53 -5.43,1.26 -10.83,6.87l-3.42 6.86c15.03,15.59 12.71,-3.03 13.95,20.9l-13.51 3.14c6.77,9.22 -0.12,5.73 13.22,9.56 4.33,-0.77 3.42,-7.66 3.42,4.17l4.54 3.12 -7.94 3.75c0,18.66 -1.75,5.06 6.81,10.29 12.4,-22.65 -4.19,8.05 7.42,23.99 0.27,0.37 1.14,1.42 1.38,1.73 0.24,0.32 1.03,1.11 1.45,1.75l3.41 0c-0.99,-15.97 -3.37,-22.88 -3.33,-41.28 0.03,-17.28 -3.53,-23.68 -3.5,-41.12 -5,-7.25 -2.61,-5.58 -6.1,-14.21 -5.64,-13.92 -0.86,-7.31 -10.96,-13.26l-6.84 0.02z"/>
   <path class="fil25" d="M470.92 1648.69c8.88,5.67 18.29,3.89 30.44,2.55l-10.54 -12.29c1.03,-14.02 3.3,-38.37 23.02,-30.42 18.56,7.49 3.68,34.86 2.06,43 7.58,-1.28 10.94,-3.58 19.03,0.3 -1.73,-14.98 -1.37,-36.29 -6.54,-50.63 -11.33,-0.88 -27.82,1.96 -32.93,1.2 -11.58,-1.73 4.98,-4.15 -8.86,-2.5 -0.64,0.08 -11.3,4.17 -15.38,5.03 10.16,12.85 10.1,-2.02 9.71,36.02l-10.01 7.74z"/>
   <path class="fil27" d="M530.28 1222.91c4.05,2.68 6.5,6.69 9.23,10.56 0.28,-18.58 14.52,-22.03 26.71,-30.92 10.88,5.23 19.35,13.9 27.38,24.2 14.09,18.06 1.34,21.03 7.08,31.7 13.48,-3.79 16.78,-24.34 7.67,-36.32 -3.59,-4.71 -9.76,-9.12 -13.64,-13.82 -5.71,-6.92 -6.28,-11.6 -11.98,-18.85 -26.06,-2.54 -38.07,19.62 -52.45,33.45z"/>
   <path class="fil28" d="M146.53 481.24l-0.54 6.87c-0.55,2.56 -0.67,5.26 -1.74,8.46 -2.26,6.73 -1.35,3.45 -4.55,8.69l2.24 4.36 -12.47 2.52 0 5.4c15.64,1.44 7.3,0.41 19.59,-8.54 0.08,14.72 4.03,4.32 -8.78,14.62 10.42,5.42 5,-2.14 13.08,9.12l12.8 -0.35c8.57,-13.27 -6.04,-2.57 11.39,-13.09 -5.05,-12.46 -10.21,-14.72 -14.24,-24.62l17.35 -10.01 0 -10.3c-14.33,1.08 -25.1,10.38 -34.13,6.87z"/>
   <path class="fil29" d="M453.35 1253.43l7.85 -8.21 -1.43 -16.46 15.9 -4.52 -0.22 10.49 23.27 -2.64 6.73 -8.8 -8.47 -9.72 -13.76 -14.1c-12.98,-4.01 -12.84,-8.15 -23.19,-7.78 0.34,15.86 -1.6,16.21 -5.08,30.73 -3.51,14.63 -1.27,16.39 -1.6,31.01z"/>
   <path class="fil15" d="M1024.69 612.31c12.01,0.45 12.64,-1.41 6.54,10 -8.25,-3.65 -6.03,5.65 -6.54,-10zm26.15 2.25c-20.86,-1.48 -3.66,-18.23 0,0zm-33.56 -30.29l2.6 6.86c2.25,6.41 6.62,5.91 -2.31,17.45l-17.35 -7.16c-6.9,0.05 -0.98,-1.19 -3.41,6.86 7.86,0 6.81,-2.46 6.81,3.44 8.76,5.83 9.58,9.48 19.27,14.95 7.62,4.31 15.13,7.32 22.88,11.93l12.9 -36.74 -0.42 -10.73 -6.83 0c-3.34,8.85 1.99,5.39 -7.12,7.15l-3.12 -10.58 -6.94 7.32 -16.96 -10.75z"/>
   <path class="fil23" d="M1224.99 1632.11c0.79,13.88 -1.57,15.65 -14.24,14.32 -3.76,-13.42 2.36,-14.26 14.24,-14.32zm-27.32 -21.19c15.72,8.87 8.38,-2.43 18.92,-4.85 11.85,-2.72 9.05,9.74 8.11,17.7 -13.8,10.08 -22.91,-2.45 -30.15,21.78 13.63,18.2 10.54,8.23 26.34,5.25 16.05,-3.03 7.47,12.07 28,-3.29 -10.5,-5.49 -9.56,4.68 -9.86,-39.15l-16.35 -11.81c-9.13,2.95 -17.96,5.79 -25.01,14.37z"/>
   <path class="fil17" d="M840.01 1651.24l30.91 -5.84c-0.92,-120.79 3.25,-55.69 12.6,-81.97l-43.22 -0.54c7.77,21.46 16.53,-18.86 16.51,44.59 -0.01,28.38 5.35,31.59 -16.8,43.76z"/>
   <path class="fil23" d="M1495.04 1642.11c6.06,-8.14 6.97,-9.93 20.2,-10 -0.22,16.44 -7.38,17.09 -20.2,10zm44.69 6.58l-14.27 -5.34c1.3,-19.73 8.61,-24.9 -3.68,-41.85 -15.15,-6.53 -32.89,-3.24 -32.39,15.99 13.85,-7.46 5.12,-5.08 15.02,-12.85 12.72,7.6 9.96,2.19 11.71,16.87l-30.7 12.83 -0.27 17.19c20.37,7.22 11.04,-1.72 27.31,-1.33 15.23,0.37 4.28,9.19 27.27,-1.51z"/>
   <path class="fil25" d="M1348.21 1620.92c8.42,-14.55 2.6,-8.7 17.08,-17.17 15.19,4.17 34.97,23.5 17.98,38.69 -19.43,17.38 -27.9,-6.76 -35.06,-21.52zm-9.95 0.3l0.31 16.3c21.31,21.13 39.54,21.13 60.28,-0.02 6.36,-54.38 -52.6,-45.95 -60.59,-16.28z"/>
   <path class="fil28" d="M341.17 539.61l-3.42 -3.43 3.42 3.43zm-3.42 -3.43c-9.39,-6.76 -9.26,-6.77 -4.29,-16.88l4.29 16.88zm6.83 -13.74l0 0zm-3.41 17.17c10.34,2.79 4.05,-3.53 6.82,6.87l0 13.72c11.08,-9.43 7.7,-2.24 6.2,-21.38l10.88 2.92 0 -9 -3.42 -3.43 -11.19 -9.34 -5.88 2.47c-9.22,-13.32 -6.75,-13.29 -26.73,-16.58 -0.96,12.44 -1.8,22.37 -3.12,32.87l25.93 13.58 0.51 -12.7z"/>
   <path class="fil23" d="M427.41 1644.37c1.64,-10.67 5.86,-12.19 19.03,-12.26 -0.17,12.09 -9.15,19.03 -19.03,12.26zm43.51 4.32l-13.16 -6.85c-1.85,-20.12 8.34,-22.25 -4.79,-40.34 -15.14,-6.53 -32.88,-3.24 -32.39,15.99 13.86,-7.46 5.12,-5.08 15.03,-12.85 12.68,7.58 12.05,3.7 10.53,19.13 -12.64,9.23 -12.82,-0.77 -28.97,12.06l-0.82 15.7c20.21,7.17 11.56,-1.57 27.78,-1.8 14.98,-0.22 3.37,9.86 26.79,-1.04z"/>
   <path class="fil23" d="M1024.69 1617.2c1.82,-9.47 0.86,-5.08 6.25,-13.15l13.67 8.17c-9.66,8.33 -5.39,6.13 -19.92,4.98zm33.27 25.5c-15.9,1.85 -31.44,7.37 -34.15,-14.91 9.62,-5.83 25.02,-8.21 37.57,-10.89l-20.39 -19.62c-64.4,11.77 -14.17,85.13 16.97,45.42z"/>
   <path class="fil17" d="M1539.73 1648.69c8.85,5.66 21.63,3.89 33.85,2.55 -6.97,-5.2 -7.34,-3.32 -9.95,-12.85 0,-19.28 -4.07,-62.96 3.12,-78.1 -12.95,-1.17 -12.58,-1.26 -23.02,7.17 9.24,13.39 11.26,14.2 9.75,32.99 -0.91,11.26 -2.55,9.47 -3.43,20.85 -0.63,8.23 0.04,14.59 -0.96,23.07l-9.36 4.32z"/>
   <path class="fil11" d="M1608.02 467.5l0 0zm0 0c-13.86,1.21 -18.49,5.36 -27.31,13.97 -18.71,18.26 1.38,2.37 -13.37,22.92 27.93,-4.12 12.63,-17.36 61.15,-9.42 -7.11,-10.49 3.03,-4.97 -11.46,-6.08l3.02 -11.7c0.05,-0.49 -0.15,-1.45 -0.1,-1.95 0.63,-6.35 -6.31,-8.14 8.21,-12.7l-30.38 -5.32c6.15,8.23 -2.48,1.64 10.24,10.28z"/>
   <path class="fil27" d="M453.83 1181.71c-17.82,6.82 -14.87,67.8 -3.39,91.48 3.07,-5.38 2.43,-1.39 3.59,-9.11 1.03,-6.93 0.31,-4.76 -0.68,-10.65 0.33,-14.62 -1.91,-16.38 1.6,-31.01 3.48,-14.52 5.42,-14.87 5.08,-30.73 10.35,-0.37 10.21,3.77 23.19,7.78 -17.37,-15.62 -5.42,-27.97 -29.35,-9.45l-0.04 -8.31z"/>
   <path class="fil30" d="M1423.63 635.77l6.83 0 3.41 -0.02c11.32,-15.97 17.61,-6.7 30.15,-12.55 -5.05,-7.81 -5.47,-7.63 -13.6,-11.19 -17.43,-7.64 -5.21,4.41 -15.75,-4.6 -2.07,-1.78 -17.93,-26.31 -21.29,-30.62 -6.32,11.09 4.37,46.22 10.25,58.98z"/>
   <path class="fil31" d="M474.18 1239.37c-7.24,6.02 -3.18,3.78 -12.98,5.85l-7.85 8.21c0.99,5.89 1.71,3.72 0.68,10.65 -1.16,7.72 -0.52,3.73 -3.59,9.11 2.3,6.61 5.17,10.92 8.32,17.38 5.6,11.47 6.63,7.5 -1.2,13.87l9.95 -1.72c4.7,-6.73 1.16,4.54 1.01,-7.83 -0.05,-4.85 -1.01,-4.66 -0.3,-11.45 -3.04,-16.18 -5.33,-10.3 -1.4,-26.74 14.2,-0.37 10.04,-1.29 22.04,6.39l6.11 -5.86 3.12 -7.41 5.83 1.32 4.94 1.42c-18.78,-23.17 -20.92,-3.78 -34.68,-13.19z"/>
   <path class="fil23" d="M249.55 1617.2c1.82,-9.47 0.86,-5.08 6.25,-13.15 15.8,7.29 9.53,-0.93 12.78,9.42 -8.74,7.02 -5.23,4.82 -19.03,3.73zm33.27 25.5c-17.71,2.06 -28.17,7.39 -34.14,-14.91 9.61,-5.83 25.01,-8.21 37.56,-10.89 -11.53,-16.23 -6.82,-10.06 -23.61,-20.31 -13.79,9.1 -33.17,16.84 -25.39,39.58 7.14,20.86 33.63,21.78 45.58,6.53z"/>
   <path class="fil23" d="M962.07 1604.06c18.05,15.45 -0.71,13.89 11.4,47.47 16.71,1.31 21.81,3.52 34.15,-6.28 -8.96,-4.64 -7.52,0.68 -23.9,-0.59l-0.54 -36.59c14.25,-1.04 13.05,2.42 23.27,-5.2l-19.05 -2.85 -6.18 -13.09 -19.15 17.13z"/>
   <path class="fil23" d="M1252.32 1604.06c15.52,13.28 2.57,24.47 9.65,45.8 13.19,4.43 27.62,6.1 31.02,-7.75l-18.87 3.7 -0.69 -37.74c13.28,-0.97 11.31,1.58 21.02,-4.02 -20.56,-11.77 -9.75,8.63 -23.61,-16.88l-18.52 16.89z"/>
   <path class="fil32" d="M468.22 1283.44c12.39,5.77 12.55,3.83 18.69,17.46 13.09,-6.57 6.29,-10.43 8.48,-18.58 1.98,-7.37 7.5,-7.91 9.59,-25.99 -11.5,-5.17 -0.58,-1.59 -10.01,0.9l-6.11 5.86c-12,-7.68 -7.84,-6.76 -22.04,-6.39 -3.93,16.44 -1.64,10.56 1.4,26.74z"/>
   <path class="fil17" d="M288.91 1606.64c4.78,3.54 15.45,0.67 11.28,31.75 -2.61,9.53 -2.98,7.65 -9.95,12.85 12.56,1.38 28.13,3.06 37.85,-2.55l-14.85 -5.35c-5.82,-42.3 2.67,-33.31 23.92,-33.01 -0.2,-20.04 -7.48,-13.27 -19.9,-5.69 -6.01,-7.49 -2.13,-4.29 -10.53,-7.75l-17.82 9.75z"/>
   <path class="fil26" d="M57.74 646.07l4.1 26.85c16.56,6.12 11.51,7.44 22.69,14.87 27.5,18.28 11.37,16.64 34.66,16.64 6.9,-0.06 0.98,1.19 3.42,-6.87l-17.35 0.16c-5.8,-10.38 -0.33,-5.06 -8.01,-15.85 -6.94,-9.76 -4.43,1.86 -5.94,-18.06l-15.27 6.86 -4.64 -28.03c-8.3,6.47 -3.91,-4 -7.37,6.97l-6.29 -3.54z"/>
   <path class="fil25" d="M1064.06 1606.66c4.76,3.52 15.44,0.65 11.27,31.73 -2.61,9.53 -2.98,7.65 -9.95,12.85 12.56,1.38 28.13,3.06 37.85,-2.55 -16.82,-9.64 -17.88,10.58 -17.42,-33.47 21.28,-16.41 12.22,7.54 27.67,-11.17 -8.83,-10.71 -7.8,-7.51 -21.08,0.59l-10.08 -8.24 -18.26 10.26z"/>
   <path class="fil33" d="M1455.24 806.55l26.15 0.75 -28.06 -61.3c-5.32,7.29 -5.21,35.47 -2.77,46.35 0.49,2.15 0.35,0.71 1.13,3.44 0.11,0.38 0.42,1.34 0.53,1.73l3.02 9.03z"/>
   <path class="fil34" d="M539.51 1233.47l3.56 2.97 2.73 -3.34 9.99 -17.37c18.75,2.48 2.53,-1.01 14.8,6.91 19.61,12.67 22.9,8.76 21.96,39.34 5.67,4.59 -0.62,2.12 8.13,-1.28l0 -2.25c-5.74,-10.67 7.01,-13.64 -7.08,-31.7 -8.03,-10.3 -16.5,-18.97 -27.38,-24.2 -12.19,8.89 -26.43,12.34 -26.71,30.92z"/>
   <path class="fil13" d="M1498.17 1356.24c11.47,-31.81 -12.34,-38.25 -25.26,-25.4 -13.51,13.44 -5.54,36.63 25.26,25.4z"/>
   <path class="fil35" d="M612.41 1328.27c0.44,9.74 0.6,9.86 -10.59,10.77l5.47 10.26c14.91,1.83 4.15,0.12 15.05,-1.18 1.17,-0.14 4.65,-0.92 5.76,-0.87 10.38,0.43 0.86,-2.11 8.47,2.71l9.81 -3.44 -0.22 -6.86c-10.36,-5.52 -8.05,-3.04 -20.99,-4.03 -1.59,-20.91 5.85,-13.05 -0.57,-30.31 -5.94,-15.62 -5.54,-3.24 -8.42,5.2 -1.69,4.95 -2.65,12.44 -3.77,17.75z"/>
   <path class="fil36" d="M545.8 1233.1l6.81 -2.19 16.54 10.85 11.19 -4.85c0.11,1.66 2.28,12.79 2.85,15.05 3.93,15.56 3.24,0.14 6.61,19.03l12.56 -3.44 -1.68 -6.85c-8.75,3.4 -2.46,5.87 -8.13,1.28 0.94,-30.58 -2.35,-26.67 -21.96,-39.34 -12.27,-7.92 3.95,-4.43 -14.8,-6.91l-9.99 17.37z"/>
   <path class="fil35" d="M498.72 1232.09c13.26,4.88 24.99,19.59 28.13,30.51 1.53,5.3 1.72,12.31 2.41,18.03l7.32 -6.39 6.64 -18.4c-14.27,-7.6 -0.96,1.46 -12.62,-13.94 -1.04,-1.38 -8.97,-11.03 -9.14,-11.2 -3.99,-3.91 -19.36,-14.84 -24.48,-17.13l8.47 9.72 -6.73 8.8z"/>
   <path class="fil37" d="M1430.46 635.77l-6.83 0c2.38,8.18 3.06,14.56 5.61,21.81 0.15,0.45 2.86,6.95 2.99,7.15 6.5,10.43 -0.85,1.85 8.46,8.79l13.65 -13.73 -9.8 -1.22 19.45 -17.16c-16.64,-8.73 -19.45,-1.5 -30.12,-5.66l-3.41 0.02z"/>
   <path class="fil38" d="M589.8 1270.99c-3.28,6.43 -2.39,8.52 -10.71,7.55 0.9,7.59 -2.58,7.26 3.07,5.16l14.64 -1.08 0.55 11.26c-1.81,7.38 1.35,4.04 -2.2,6.94l2.64 5.17c9.8,-16.56 -0.45,-8.39 13.6,-8.73 2.06,6.33 1.98,2.16 -0.57,14.44 -2.12,10.18 -5.98,9.31 1.59,16.57 1.12,-5.31 2.08,-12.8 3.77,-17.75 2.88,-8.44 2.48,-20.82 8.42,-5.2l8.31 -1.81 1.92 -8.47 -13.61 5.98c-11.2,-11.07 -5.7,-8.34 -10.19,-16.25 -5.09,-8.96 -9.53,0.91 -4.38,-15.05l7.69 8.11c-2.74,-15.89 3.86,-7.12 -6.97,-10.28l-5.01 0 -12.56 3.44z"/>
   <path class="fil33" d="M1454.34 659.79l-13.65 13.73c-1.91,7.96 -3.58,3.09 1.05,15.94 1.85,5.14 5.94,11.42 8.33,14.67 4.78,-12.42 11.43,-37.14 21.36,-44.34l3.42 -6.87 -1.36 -6.52c-4.83,2.59 -9.41,4.47 -12.64,6.47 -6.61,4.09 -5.27,2.88 -6.51,6.92z"/>
   <path class="fil15" d="M1157.28 601.42l7.84 6.41 -10.46 4.27 2.62 -10.68zm0 0l-9.76 3.45 0.7 14.99c12.2,3.63 12.5,1.2 22.72,-1.27l1.65 -7.14 1.76 10.55 3.42 0 2.73 -8 4.1 11.44c6.4,-11.92 -2.55,-8.16 6.81,-24.02l-10.81 0.23c-7.61,-10.35 0.23,-3.2 -9.95,-7.39l-13.37 7.16z"/>
   <path class="fil24" d="M1301.59 1605.44c-0.31,-0.8 17.92,30.57 -0.6,45.8l30.15 0.76c-12.55,-16.73 -9.85,20.46 -10.11,-54.53l-19.44 7.97z"/>
   <path class="fil22" d="M607.29 1349.3c-3.43,3.5 5.42,3.92 -11.75,5.63 5.25,13.35 -9.14,22.88 -20.31,25.46 15.11,4.67 4.26,-1.32 11.68,7.34l9.1 3.61c11.24,-16.38 -4.93,-2.7 19.21,-33.63 12.32,-1.47 12.07,1.09 21.35,-7.75 -7.61,-4.82 1.91,-2.28 -8.47,-2.71 -1.11,-0.05 -4.59,0.73 -5.76,0.87 -10.9,1.3 -0.14,3.01 -15.05,1.18z"/>
   <polygon class="fil39" points="545.8,1233.1 543.07,1236.44 543.22,1255.84 536.58,1274.24 541.52,1276.58 547.23,1271.44 548.28,1236.18 563.75,1246.96 559.04,1267.33 579.09,1278.54 569.15,1241.76 552.61,1230.91 "/>
   <path class="fil40" d="M1468.02 1388.02l0 82.12 30.73 0c0,-21.78 4.05,-84.05 -2.15,-99.58l-0.99 95.98 -23.94 -0.43c-1.4,-22.38 6.07,-58.91 -3.65,-78.09z"/>
   <path class="fil41" d="M989.96 721.61l-3.77 13.84c-11.84,6.32 1.14,-1.5 -13.3,2.88l-1.19 10.74 -1.25 11.45c18.63,5.87 15.51,1.13 20.92,-13.47 5.25,-14.16 10.61,-16.25 15.66,-28.87l-17.07 3.43z"/>
   <path class="fil35" d="M561.03 1375.3l-2.85 2.13 9.33 9.29 19.4 1.01c-7.42,-8.66 3.43,-2.67 -11.68,-7.34 11.17,-2.58 25.56,-12.11 20.31,-25.46 17.17,-1.71 8.32,-2.13 11.75,-5.63l-16.22 -5.37c-3.05,8.19 -9.36,22.17 -14.14,29.02l-15.9 2.35z"/>
   <path class="fil20" d="M486.91 1300.9l6.87 9.01c10.54,-4.66 14.15,-10 17.2,-24.54 4.19,-19.96 -0.78,-17.52 -7.06,-34.23l-5.83 -1.32 -3.12 7.41c9.43,-2.49 -1.49,-6.07 10.01,-0.9 -2.09,18.08 -7.61,18.62 -9.59,25.99 -2.19,8.15 4.61,12.01 -8.48,18.58z"/>
   <path class="fil42" d="M1137.07 656.36l0 3.43 11.35 -1.87 8.86 5.29c16.5,0 9.71,3.74 17.06,-6.85l-16.48 -0.18c0.1,-9.26 -0.2,-18.23 10.79,-10.13l-1.11 -6.86 -4.38 -6.85 11.18 -3.45 0 -3.44 -17.35 -0.16c-10.07,18.23 5.41,17.51 -19.92,31.07z"/>
   <path class="fil43" d="M962.64 728.46l-3.12 -0.88 1.97 -2.53 1.15 3.41zm-6.83 -9.09l-9.11 9.09c13.82,2.91 6.48,-3.65 8.53,6.28l-13.06 -6.26 1.42 10.41 8.79 3.31 6.85 2.83 3.41 0 0 -16.57c6.54,10.33 1.13,4.03 3.32,10.3 7.87,22.5 -7.24,-12.86 1.96,5.65l3.78 4.66 1.19 -10.74c-5.29,-12.52 -4.41,-16.69 10.49,-20.17 -0.7,-0.35 -1.69,-0.71 -2.19,-0.87 -0.53,-0.18 -1.72,-0.64 -2.38,-0.85l-12.75 -3.75 -2.07 9.88 -8.18 -3.2z"/>
   <path class="fil30" d="M1435.39 587.68l2.55 16.57 26.13 0.54c-0.28,-18.82 -10.79,-21.74 -26.78,-24.79 -5.39,3.2 -8.18,-5.71 -1.9,7.68z"/>
   <path class="fil44" d="M552.86 1271.02c7.49,11.01 -0.49,6.3 16.51,13.04 -5.35,1.23 3.36,10.62 9.31,16.92l16.47 -0.16c3.55,-2.9 0.39,0.44 2.2,-6.94 -12.01,-0.94 -9.76,-0.24 -15.19,-10.18 -5.65,2.1 -2.17,2.43 -3.07,-5.16l-20.05 -11.21 -6.18 3.69z"/>
   <path class="fil45" d="M582.46 1325.9c0.01,6.54 3.07,18.2 8.61,18.03l16.22 5.37 -5.47 -10.26 -4.03 -33.05 -2.64 -5.17c-5,8.48 5.21,4.01 -7.49,7.83l3.2 14.01 -8.4 3.24z"/>
   <path class="fil35" d="M541.52 1276.58c10.13,9.13 4.86,4.41 14.66,9.13 11.04,5.32 0.2,-2.32 10.96,8.57 14.57,14.75 12.11,10.43 15.32,31.62l8.4 -3.24 -3.2 -14.01c12.7,-3.82 2.49,0.65 7.49,-7.83l-16.47 0.16c-5.95,-6.3 -14.66,-15.69 -9.31,-16.92 -17,-6.74 -9.02,-2.03 -16.51,-13.04l-5.63 0.42 -5.71 5.14z"/>
   <path class="fil3" d="M948.97 790.27c-3.26,9.12 2.33,7.12 6.84,6.88l13.15 3.87c-0.2,-13.62 2.58,-7.29 -2.98,-18.53 -12.18,-2.4 1.23,4.42 -4.9,-3.89 -4.06,-5.5 6.16,-7.68 -13.85,-5.88 -4.56,13.12 -8.68,-3.43 1.74,17.55z"/>
   <path class="fil31" d="M597.79 1305.99l4.03 33.05c11.19,-0.91 11.03,-1.03 10.59,-10.77 -7.57,-7.26 -3.71,-6.39 -1.59,-16.57 2.55,-12.28 2.63,-8.11 0.57,-14.44 -14.05,0.34 -3.8,-7.83 -13.6,8.73z"/>
   <path class="fil46" d="M569.15 1241.76l9.94 36.78c8.32,0.97 7.43,-1.12 10.71,-7.55 -3.37,-18.89 -2.68,-3.47 -6.61,-19.03 -0.57,-2.26 -2.74,-13.39 -2.85,-15.05l-11.19 4.85z"/>
   <path class="fil47" d="M692.88 1600.61c4.32,15.96 24.74,12.55 34.44,7.17l-0.1 -7.46c-8.96,-5.03 -25.91,-5.1 -34.34,0.29z"/>
   <path class="fil47" d="M730.44 1600.61l-0.25 7.17c10.11,5.63 29.85,8.68 34.69,-7.46 -9.06,-5.03 -26.01,-5.1 -34.44,0.29z"/>
   <path class="fil39" d="M95.31 659.79l14.94 5.19 1.53 11.3c19.83,-5.2 0.59,0.81 25,-1.33 10.01,-0.87 3.4,1.34 10.33,-1.43 -10.24,-6.42 -14.94,-5.01 -25.11,-9.67 -12.05,-5.52 -15.79,-11.03 -26.69,-4.06z"/>
   <polygon class="fil48" points="547.23,1271.44 552.86,1271.02 559.04,1267.33 563.75,1246.96 548.28,1236.18 "/>
   <path class="fil39" d="M115.79 498.41l-3.41 3.43 -6.81 10.3c5.71,7.56 -2.75,5.55 10.09,5.86 18.29,0.43 7.77,-1.77 12.65,-5.86 -6.69,-2.45 -7.86,-0.02 -2.27,-3.43l1.6 -6.87 -1.16 -6.87 -3.86 0 -6.83 3.44z"/>
   <path class="fil49" d="M1102.65 755.93c0.33,-0.33 0.98,0.53 0.98,1 0,0.19 0.42,0.42 0.41,0.4 -0.08,-0.08 -5.98,3.21 -1.39,-1.4zm12.01 3.44c-7.2,-2.89 -7.49,-0.38 -0.27,-3.44l-1.07 -7.94c-12.72,0.73 -9.15,-1.01 -19.01,4.04l-0.39 14.6c20.78,2 14.89,4.71 20.74,-7.26z"/>
   <path class="fil35" d="M634.83 1295.04l0 -0.02 -8.14 -1.77c-3.78,-11.19 -1.41,-15.98 -12.35,-15.42l-7.69 -8.11c-5.15,15.96 -0.71,6.09 4.38,15.05 4.49,7.91 -1.01,5.18 10.19,16.25l13.61 -5.98z"/>
   <path class="fil39" d="M167.03 570.51l-0.02 10.3 19.71 3.78 -6.05 -24.36c-14.61,5.16 -5.83,0.76 -13.64,10.28z"/>
   <path class="fil50" d="M1088.99 656.59l-1.38 -0.23c-15.72,-1.41 -7.24,4.24 -15.11,-8.05l12.29 -5.69 -2.37 -6.87 -16.86 6.73c0.23,7.2 0.94,13.23 6.3,17.68 12.77,10.59 14.39,-0.06 17.13,-3.57z"/>
   <path class="fil5" d="M1089.51 646.05l-1.9 10.31 1.38 0.23c12.61,2.38 -0.35,4 13.67,-3.67l2.94 -15.09c-17.92,-3.83 -13.04,-4.75 -16.09,8.22z"/>
   <path class="fil20" d="M474.34 1312.2l-3.42 3.42 17.08 14.03 7.63 1.21 -3.65 -16.43c-13.63,-5.04 -6.16,-7.06 -17.64,-2.23z"/>
   <path class="fil51" d="M307.02 563.24c8.15,-2.55 4.4,1.85 6.83,-3.04 -4.36,-7.53 -5.74,-11.11 -13.66,-17.74 -5.5,10.78 -0.54,2.39 -3.14,9.32 -2.35,6.29 -4.08,-2.85 -3.11,14.71 13.33,-0.51 7.24,4.48 10.54,-9.68l2.54 6.43z"/>
   <path class="fil52" d="M461.2 1245.22c9.8,-2.07 5.74,0.17 12.98,-5.85l1.27 -4.64 0.22 -10.49 -15.9 4.52 1.43 16.46z"/>
   <path class="fil51" d="M126.48 494.97l1.16 6.87c6.66,0 6.6,-1.39 1.83,3.43l0 3.44c8.96,-3.43 5.65,1.97 6.52,-7.16 4.68,-4.41 -0.16,-3.36 3.71,3.71 3.2,-5.24 2.29,-1.96 4.55,-8.69 1.07,-3.2 1.19,-5.9 1.74,-8.46l-13.12 0c0,11.83 1.82,4.19 -6.39,6.86z"/>
   <path class="fil2" d="M1596.41 903.58l1.3 3.43 6.9 5.52c2.32,-6.2 0.63,-8.07 2.3,-2.08 0,5.32 -1.2,3.75 4.53,3.75l1.72 -7.19 -8.55 -6.6c-3.44,5.27 -1.3,3.53 -1.82,-0.26 0,-6.99 1.78,-5.33 -5.01,-5.33l-1.37 5.33 0 3.43z"/>
   <path class="fil39" d="M269.46 477.8c7.57,10.7 14.07,12.87 24.48,6.87 -6.69,-5.31 -20.08,-12.13 -24.48,-6.87z"/>
   <path class="fil53" d="M1553.49 1394.59l26.63 -0.12 0.51 -23.32c-17.16,-0.81 -4.91,-0.68 -10.17,4.86l8.7 0.76 -1.49 14.69c-13.03,0.26 -14.9,-2.66 -24.18,3.13z"/>
   <path class="fil54" d="M1477.39 618.29c1.56,-14.45 4.27,-12.37 -5.96,-20.89 -6.3,11.59 -5.25,12.81 5.96,20.89z"/>
   <path class="fil55" d="M255.8 522.44c4.93,11.78 9.24,10.21 17.66,0 -9.51,-5.49 -8.63,-5.79 -17.66,0z"/>
   <path class="fil56" d="M522.14 1362.58l0 1.11c14.53,-1.29 6.96,-3.82 17.46,0 -8.31,-12.71 -13.53,-14.02 -29,-16.76l20.01 12.21 -8.47 3.44z"/>
   <path class="fil57" d="M582.16 1283.7c5.43,9.94 3.18,9.24 15.19,10.18l-0.55 -11.26 -14.64 1.08z"/>
   <path class="fil17" d="M1310.65 1573.44c9.65,5.22 6.7,5.77 14.54,-3.73 -16.46,-9.5 -9.4,-1.6 -14.54,3.73z"/>
   <path class="fil56" d="M510.6 1346.93l1.3 -14.08 -9.14 0.39c0.45,9.1 -2.23,5.59 7.84,13.69z"/>
   <path class="fil58" d="M447.02 1130.2l17.08 3.44c-3.91,-13.21 -9.1,-10.57 -17.08,-3.44z"/>
   <path class="fil59" d="M646.38 1346.52c9.82,2.94 9.35,5.72 18.6,-1.17 -11.12,-4.15 -1.64,5.08 -18.82,-5.69l0.22 6.86z"/>
   <polygon class="fil56" points="124.22,525.88 136.28,529.31 129.47,517.54 "/>
   <path class="fil60" d="M464.1 1154.24c5.97,-7.93 5.06,-12.88 0,-20.6l0 20.6z"/>
   <polygon class="fil61" points="457.27,1165.41 467.51,1164.04 464.1,1154.24 "/>
   <path class="fil35" d="M494.83 1342.2c4.18,-4.64 5.37,5.73 2.87,-6.09 -8.73,-1.17 -3.14,-3.18 -8.39,3.55l5.52 2.54z"/>
   <path class="fil62" d="M464.1 1312.19c-7.73,-4.95 -7.23,-5.66 -16.79,-0.89l16.79 0.89z"/>
   <path class="fil63" d="M1435.39 587.68c-6.28,-13.39 -3.49,-4.48 1.9,-7.68l-12.82 -6.49 10.92 14.17z"/>
   <polygon class="fil62" points="699.03,1363.69 707.44,1363.69 704,1355.93 "/>
   <path class="fil64" d="M1500.06 485.53l-1.52 -7.44 -3.58 3.15c3.09,5.06 -4.61,2.65 5.1,4.29z"/>
   <polygon class="fil61" points="470.92,1315.62 470.92,1312.19 464.1,1312.19 "/>
   <polygon class="fil60" points="522.14,1363.69 518.73,1363.69 520.32,1370.56 "/>
   <polygon class="fil60" points="1491.92,659.14 1495.34,659.14 1489.78,652.82 "/>
   <polygon class="fil65" points="447.02,1130.2 443.9,1131.09 445.87,1133.62 "/>
   <polygon class="fil59" points="634.83,1295.02 637.95,1294.14 635.98,1291.6 "/>
   <polygon class="fil66" points="1529.48,549.91 1532.61,549.03 1530.64,546.49 "/>
   <path class="fil60" d="M525.56 1373.99c0.33,0.33 0.99,-1.46 0.99,-0.99 0,0.19 0.42,-0.42 0.4,-0.41 -0.08,0.08 -5.98,-3.21 -1.39,1.4z"/>
  </g>
 </g>
</svg>
